<svg width="60" height="60" viewBox="0 0 60 60" fill="none" xmlns="http://www.w3.org/2000/svg">
<path d="M30 58.7109C45.8566 58.7109 58.7109 45.8566 58.7109 30C58.7109 14.1434 45.8566 1.28906 30 1.28906C14.1434 1.28906 1.28906 14.1434 1.28906 30C1.28906 45.8566 14.1434 58.7109 30 58.7109Z" fill="#FFAF10"/>
<path d="M33.1207 44.5112H20.4645V49.9218H33.1207V44.5112Z" fill="#445EA0"/>
<path d="M22.7897 44.5112H20.4645V49.9218H22.7897V44.5112Z" fill="#2E4C89"/>
<path d="M39.0392 52.7344C39.0392 53.0566 38.7755 53.3203 38.4532 53.3203H15.1326C14.8103 53.3203 14.5466 53.0566 14.5466 52.7344V50.3906C14.5466 50.0684 14.8103 49.8047 15.1326 49.8047H38.4532C38.7755 49.8047 39.0392 50.0684 39.0392 50.3906V52.7344Z" fill="#293D7C"/>
<path d="M16.8719 52.7344V50.3906C16.8719 50.0684 17.1355 49.8047 17.4578 49.8047H15.1326C14.8103 49.8047 14.5466 50.0684 14.5466 50.3906V52.7344C14.5466 53.0566 14.8103 53.3203 15.1326 53.3203H17.4578C17.1355 53.3203 16.8719 53.0566 16.8719 52.7344Z" fill="#1A2B63"/>
<path d="M0 43.4571C0 44.1017 0.527344 44.629 1.17188 44.629H36.3486V36.7832H0V43.4571Z" fill="#293D7C"/>
<path d="M2.32523 43.4571V36.7832H0V43.4571C0 44.1017 0.527344 44.629 1.17188 44.629H3.49711C2.85258 44.629 2.32523 44.1017 2.32523 43.4571Z" fill="#1A2B63"/>
<path d="M36.3486 33.631C36.3486 33.3725 36.5589 33.1623 36.8174 33.1623H53.5857V7.78861C53.5857 7.0801 53.0061 6.50049 52.2977 6.50049H1.28812C0.579609 6.50049 0 7.0801 0 7.78861V36.9001H36.3486V33.631Z" fill="#445EA0"/>
<path d="M36.3486 33.6314C36.3486 33.3729 36.5589 33.1627 36.8174 33.1627H51.0096V9.66309C51.0096 9.34082 50.7459 9.07715 50.4237 9.07715H3.16217C2.8399 9.07715 2.57623 9.34082 2.57623 9.66309V33.7382C2.57623 34.0605 2.8399 34.3241 3.16217 34.3241H36.3485L36.3486 33.6314Z" fill="#EEF6FF"/>
<path d="M26.7926 42.4362C27.6929 42.4362 28.4227 41.7063 28.4227 40.806C28.4227 39.9056 27.6929 39.1758 26.7926 39.1758C25.8922 39.1758 25.1624 39.9056 25.1624 40.806C25.1624 41.7063 25.8922 42.4362 26.7926 42.4362Z" fill="#445EA0"/>
<path d="M48.7923 24.1847C48.7923 24.507 48.5286 24.7707 48.2063 24.7707H29.6371C29.3149 24.7707 29.0512 24.507 29.0512 24.1847V15.6631C29.0512 15.3408 29.3149 15.0771 29.6371 15.0771H48.2063C48.5286 15.0771 48.7923 15.3408 48.7923 15.6631V24.1847Z" fill="#FFAF10"/>
<path d="M31.3766 24.1847V15.6631C31.3766 15.3408 31.6402 15.0771 31.9625 15.0771H29.6373C29.315 15.0771 29.0513 15.3408 29.0513 15.6631V24.1847C29.0513 24.507 29.315 24.7707 29.6373 24.7707H31.9625C31.6402 24.7707 31.3766 24.507 31.3766 24.1847Z" fill="#FF9518"/>
<path d="M35.0702 28.1392H30.018C29.5326 28.1392 29.1391 27.7458 29.1391 27.2603C29.1391 26.7747 29.5326 26.3813 30.018 26.3813H35.0702C35.5556 26.3813 35.9491 26.7747 35.9491 27.2603C35.9491 27.7458 35.5556 28.1392 35.0702 28.1392Z" fill="#C3DDF4"/>
<path d="M35.0702 30.8105H30.018C29.5326 30.8105 29.1391 30.4171 29.1391 29.9316C29.1391 29.4461 29.5326 29.0527 30.018 29.0527H35.0702C35.5556 29.0527 35.9491 29.4461 35.9491 29.9316C35.9491 30.4171 35.5556 30.8105 35.0702 30.8105Z" fill="#C3DDF4"/>
<path d="M41.1655 28.1392H37.4085C36.9231 28.1392 36.5296 27.7458 36.5296 27.2603C36.5296 26.7747 36.9231 26.3813 37.4085 26.3813H41.1655C41.6509 26.3813 42.0444 26.7747 42.0444 27.2603C42.0444 27.7458 41.6509 28.1392 41.1655 28.1392Z" fill="#C3DDF4"/>
<path d="M41.1655 30.8105H37.4085C36.9231 30.8105 36.5296 30.4171 36.5296 29.9316C36.5296 29.4461 36.9231 29.0527 37.4085 29.0527H41.1655C41.6509 29.0527 42.0444 29.4461 42.0444 29.9316C42.0444 30.4171 41.6509 30.8105 41.1655 30.8105Z" fill="#C3DDF4"/>
<path d="M48.2545 28.1392H43.4691C42.9837 28.1392 42.5901 27.7458 42.5901 27.2603C42.5901 26.7747 42.9837 26.3813 43.4691 26.3813H48.2545C48.7399 26.3813 49.1334 26.7747 49.1334 27.2603C49.1334 27.7458 48.7399 28.1392 48.2545 28.1392Z" fill="#C3DDF4"/>
<path d="M48.2545 30.8105H43.4691C42.9837 30.8105 42.5901 30.4171 42.5901 29.9316C42.5901 29.4461 42.9837 29.0527 43.4691 29.0527H48.2545C48.7399 29.0527 49.1334 29.4461 49.1334 29.9316C49.1334 30.4171 48.7399 30.8105 48.2545 30.8105Z" fill="#C3DDF4"/>
<path d="M42.1131 13.0175C42.1131 13.3397 41.8494 13.6034 41.5272 13.6034H40.2382C39.916 13.6034 39.6523 13.3397 39.6523 13.0175V11.7285C39.6523 11.4063 39.916 11.1426 40.2382 11.1426H41.5272C41.8494 11.1426 42.1131 11.4063 42.1131 11.7285V13.0175Z" fill="#EF8318"/>
<path d="M45.3941 13.0175C45.3941 13.3397 45.1304 13.6034 44.8082 13.6034H43.5192C43.197 13.6034 42.9333 13.3397 42.9333 13.0175V11.7285C42.9333 11.4063 43.197 11.1426 43.5192 11.1426H44.8082C45.1304 11.1426 45.3941 11.4063 45.3941 11.7285V13.0175Z" fill="#EF8318"/>
<path d="M48.6751 13.0175C48.6751 13.3397 48.4114 13.6034 48.0892 13.6034H46.8002C46.478 13.6034 46.2143 13.3397 46.2143 13.0175V11.7285C46.2143 11.4063 46.478 11.1426 46.8002 11.1426H48.0892C48.4114 11.1426 48.6751 11.4063 48.6751 11.7285V13.0175Z" fill="#EF8318"/>
<path d="M22.3708 30.1177H21.3162C20.8308 30.1177 20.4373 29.7243 20.4373 29.2388C20.4373 28.7533 20.8308 28.3599 21.3162 28.3599H22.3708C22.8562 28.3599 23.2498 28.7533 23.2498 29.2388C23.2498 29.7243 22.8562 30.1177 22.3708 30.1177Z" fill="#69CDFF"/>
<path d="M18.3865 30.1177H17.3318C16.8464 30.1177 16.4529 29.7243 16.4529 29.2388C16.4529 28.7533 16.8464 28.3599 17.3318 28.3599H18.3865C18.8719 28.3599 19.2654 28.7533 19.2654 29.2388C19.2654 29.7243 18.8719 30.1177 18.3865 30.1177Z" fill="#69CDFF"/>
<path d="M14.402 30.1177H13.3473C12.8619 30.1177 12.4684 29.7243 12.4684 29.2388C12.4684 28.7533 12.8619 28.3599 13.3473 28.3599H14.402C14.8874 28.3599 15.2809 28.7533 15.2809 29.2388C15.281 29.7243 14.8875 30.1177 14.402 30.1177Z" fill="#69CDFF"/>
<path d="M10.4176 30.1177H9.36292C8.87752 30.1177 8.48401 29.7243 8.48401 29.2388C8.48401 28.7533 8.87752 28.3599 9.36292 28.3599H10.4176C10.903 28.3599 11.2965 28.7533 11.2965 29.2388C11.2965 29.7243 10.9031 30.1177 10.4176 30.1177Z" fill="#69CDFF"/>
<path d="M25.7986 26.4966C25.3132 26.4966 24.9197 26.1032 24.9197 25.6177V24.563C24.9197 24.0776 25.3132 23.6841 25.7986 23.6841C26.284 23.6841 26.6775 24.0776 26.6775 24.563V25.6177C26.6775 26.1032 26.284 26.4966 25.7986 26.4966Z" fill="#69CDFF"/>
<path d="M25.7986 22.5122C25.3132 22.5122 24.9197 22.1188 24.9197 21.6333V20.5786C24.9197 20.0932 25.3132 19.6997 25.7986 19.6997C26.284 19.6997 26.6775 20.0932 26.6775 20.5786V21.6333C26.6775 22.1188 26.284 22.5122 25.7986 22.5122Z" fill="#69CDFF"/>
<path d="M25.7986 18.5278C25.3132 18.5278 24.9197 18.1344 24.9197 17.6489V16.5942C24.9197 16.1088 25.3132 15.7153 25.7986 15.7153C26.284 15.7153 26.6775 16.1088 26.6775 16.5942V17.6489C26.6775 18.1344 26.284 18.5278 25.7986 18.5278Z" fill="#69CDFF"/>
<path d="M5.87659 26.4966C5.3912 26.4966 4.99768 26.1032 4.99768 25.6177V24.563C4.99768 24.0776 5.3912 23.6841 5.87659 23.6841C6.36198 23.6841 6.75549 24.0776 6.75549 24.563V25.6177C6.75549 26.1032 6.36209 26.4966 5.87659 26.4966Z" fill="#69CDFF"/>
<path d="M5.87659 22.5122C5.3912 22.5122 4.99768 22.1188 4.99768 21.6333V20.5786C4.99768 20.0932 5.3912 19.6997 5.87659 19.6997C6.36198 19.6997 6.75549 20.0932 6.75549 20.5786V21.6333C6.75549 22.1188 6.36209 22.5122 5.87659 22.5122Z" fill="#69CDFF"/>
<path d="M5.87659 18.5278C5.3912 18.5278 4.99768 18.1344 4.99768 17.6489V16.5942C4.99768 16.1088 5.3912 15.7153 5.87659 15.7153C6.36198 15.7153 6.75549 16.1088 6.75549 16.5942V17.6489C6.75549 18.1344 6.36209 18.5278 5.87659 18.5278Z" fill="#69CDFF"/>
<path d="M22.3708 14.1802H21.3162C20.8308 14.1802 20.4373 13.7868 20.4373 13.3013C20.4373 12.8158 20.8308 12.4224 21.3162 12.4224H22.3708C22.8562 12.4224 23.2498 12.8158 23.2498 13.3013C23.2498 13.7868 22.8562 14.1802 22.3708 14.1802Z" fill="#69CDFF"/>
<path d="M18.3865 14.1802H17.3318C16.8464 14.1802 16.4529 13.7868 16.4529 13.3013C16.4529 12.8158 16.8464 12.4224 17.3318 12.4224H18.3865C18.8719 12.4224 19.2654 12.8158 19.2654 13.3013C19.2654 13.7868 18.8719 14.1802 18.3865 14.1802Z" fill="#69CDFF"/>
<path d="M14.402 14.1802H13.3473C12.8619 14.1802 12.4684 13.7868 12.4684 13.3013C12.4684 12.8158 12.8619 12.4224 13.3473 12.4224H14.402C14.8874 12.4224 15.2809 12.8158 15.2809 13.3013C15.2809 13.7868 14.8875 14.1802 14.402 14.1802Z" fill="#69CDFF"/>
<path d="M10.4176 14.1802H9.36292C8.87752 14.1802 8.48401 13.7868 8.48401 13.3013C8.48401 12.8158 8.87752 12.4224 9.36292 12.4224H10.4176C10.903 12.4224 11.2965 12.8158 11.2965 13.3013C11.2965 13.7868 10.9031 14.1802 10.4176 14.1802Z" fill="#69CDFF"/>
<path d="M23.4549 26.3091C23.4549 26.6313 23.1912 26.895 22.869 26.895H8.80646C8.48419 26.895 8.22052 26.6313 8.22052 26.3091V16.231C8.22052 15.9087 8.48419 15.645 8.80646 15.645H22.869C23.1912 15.645 23.4549 15.9087 23.4549 16.231V26.3091Z" fill="#5DC1D8"/>
<path d="M10.5457 26.3091V16.231C10.5457 15.9087 10.8094 15.645 11.1316 15.645H8.80627C8.48401 15.645 8.22034 15.9087 8.22034 16.231V26.3091C8.22034 26.6313 8.48401 26.895 8.80627 26.895H11.1316C10.8094 26.895 10.5457 26.6313 10.5457 26.3091Z" fill="#28A5A5"/>
<path d="M27.4388 14.1807C27.4388 14.5029 27.1752 14.7666 26.8529 14.7666H24.392C24.0697 14.7666 23.806 14.5029 23.806 14.1807V11.7197C23.806 11.3975 24.0697 11.1338 24.392 11.1338H26.8529C27.1752 11.1338 27.4388 11.3975 27.4388 11.7197V14.1807Z" fill="#52BBEF"/>
<path d="M7.98572 14.415C7.98572 14.7373 7.72204 15.001 7.39978 15.001H4.93884C4.61658 15.001 4.35291 14.7373 4.35291 14.415V11.9541C4.35291 11.6318 4.61658 11.3682 4.93884 11.3682H7.39978C7.72204 11.3682 7.98572 11.6318 7.98572 11.9541V14.415Z" fill="#52BBEF"/>
<path d="M27.4388 30.5723C27.4388 30.8945 27.1752 31.1582 26.8529 31.1582H24.392C24.0697 31.1582 23.806 30.8945 23.806 30.5723V28.1113C23.806 27.7891 24.0697 27.5254 24.392 27.5254H26.8529C27.1752 27.5254 27.4388 27.7891 27.4388 28.1113V30.5723Z" fill="#52BBEF"/>
<path d="M7.98572 30.5723C7.98572 30.8945 7.72204 31.1582 7.39978 31.1582H4.93884C4.61658 31.1582 4.35291 30.8945 4.35291 30.5723V28.1113C4.35291 27.7891 4.61658 27.5254 4.93884 27.5254H7.39978C7.72204 27.5254 7.98572 27.7891 7.98572 28.1113V30.5723Z" fill="#52BBEF"/>
<path d="M25.0977 14.1807V11.7197C25.0977 11.3975 25.3613 11.1338 25.6836 11.1338H24.392C24.0697 11.1338 23.806 11.3975 23.806 11.7197V14.1807C23.806 14.5029 24.0697 14.7666 24.392 14.7666H25.6836C25.3613 14.7666 25.0977 14.5029 25.0977 14.1807Z" fill="#1E99D6"/>
<path d="M5.64455 14.415V11.9541C5.64455 11.6318 5.90822 11.3682 6.23048 11.3682H4.93884C4.61658 11.3682 4.35291 11.6318 4.35291 11.9541V14.415C4.35291 14.7373 4.61658 15.001 4.93884 15.001H6.23048C5.90822 15.001 5.64455 14.7373 5.64455 14.415Z" fill="#1E99D6"/>
<path d="M25.0977 30.5723V28.1113C25.0977 27.7891 25.3613 27.5254 25.6836 27.5254H24.392C24.0697 27.5254 23.806 27.7891 23.806 28.1113V30.5723C23.806 30.8945 24.0697 31.1582 24.392 31.1582H25.6836C25.3613 31.1582 25.0977 30.8945 25.0977 30.5723Z" fill="#1E99D6"/>
<path d="M5.64455 30.5723V28.1113C5.64455 27.7891 5.90822 27.5254 6.23048 27.5254H4.93884C4.61658 27.5254 4.35291 27.7891 4.35291 28.1113V30.5723C4.35291 30.8945 4.61658 31.1582 4.93884 31.1582H6.23048C5.90822 31.1582 5.64455 30.8945 5.64455 30.5723Z" fill="#1E99D6"/>
<path d="M51.0302 42.9812C51.0121 42.9317 51.0135 42.9036 51.016 42.8944C51.0162 42.8944 51.0233 42.8937 51.03 42.8937C51.0433 42.8937 51.0667 42.8964 51.1019 42.9094L56.036 44.7217V33.6313C56.036 33.3091 55.7723 33.0454 55.4501 33.0454H36.8173C36.495 33.0454 36.2313 33.3091 36.2313 33.6313V47.0845C36.2313 47.4067 36.495 47.6704 36.8173 47.6704H52.7524L51.0302 42.9812Z" fill="#5DC1D8"/>
<path d="M38.5567 47.0845V33.6313C38.5567 33.3091 38.8204 33.0454 39.1426 33.0454H36.8174C36.4951 33.0454 36.2314 33.3091 36.2314 33.6313V47.0845C36.2314 47.4067 36.4951 47.6704 36.8174 47.6704H39.1426C38.8204 47.6704 38.5567 47.4067 38.5567 47.0845Z" fill="#28A5A5"/>
<path d="M51.1424 42.7992C50.9494 42.7283 50.8493 42.8282 50.9202 43.0214L54.0098 51.4333C54.0807 51.6264 54.2578 51.6654 54.4032 51.5199L56.0435 49.8796C56.189 49.7342 56.427 49.7342 56.5726 49.8796L58.4626 51.7699C58.6081 51.9153 58.8461 51.9153 58.9916 51.7699L59.8909 50.8706C60.0363 50.7252 60.0363 50.487 59.8909 50.3416L58.0008 48.4515C57.8554 48.3061 57.8554 48.068 58.0008 47.9225L59.6409 46.2822C59.7865 46.1369 59.7475 45.9598 59.5543 45.8889L51.1424 42.7992Z" fill="#293D7C"/>
</svg>
