<svg width="60" height="60" viewBox="0 0 60 60" fill="none" xmlns="http://www.w3.org/2000/svg">
<g clip-path="url(#clip0)">
<path d="M49.9562 7.28835L42.9255 0.257343C42.7607 0.092578 42.5371 0 42.304 0H10.6651C10.1797 0 9.78619 0.393398 9.78619 0.878905V54.0204C9.78619 54.5058 10.1797 54.8993 10.6651 54.8993H49.3348C49.8202 54.8993 50.2137 54.5058 50.2137 54.0204V7.90991C50.2137 7.67682 50.1211 7.45335 49.9562 7.28835Z" fill="#E6E9ED"/>
<path d="M26.0188 18.1641C26.018 18.1641 26.0173 18.1641 26.0165 18.1641H17.6964C17.4481 18.1641 17.2114 18.059 17.0448 17.8748C16.8781 17.6907 16.7971 17.4448 16.8219 17.1976L17.5251 10.1664C17.5701 9.71707 17.9482 9.375 18.3997 9.375H25.4307C25.8878 9.375 26.2686 9.72539 26.3065 10.1809L26.887 17.1467C26.8941 17.1919 26.8977 17.238 26.8977 17.2851C26.8977 17.7705 26.5042 18.1641 26.0188 18.1641Z" fill="#ED5565"/>
<path d="M21.9152 5.85938C20.4612 5.85938 19.2784 7.04215 19.2784 8.49609V10.254C19.2784 10.7394 19.672 11.1329 20.1573 11.1329C20.6427 11.1329 21.0363 10.7394 21.0363 10.254V8.49609C21.0363 8.0114 21.4305 7.61718 21.9152 7.61718C22.3998 7.61718 22.7941 8.0114 22.7941 8.49609V10.254C22.7941 10.7394 23.1876 11.1329 23.673 11.1329C24.1584 11.1329 24.5519 10.7394 24.5519 10.254V8.49609C24.5519 7.04215 23.3691 5.85938 21.9152 5.85938Z" fill="#515760"/>
<path d="M42.9255 0.257285C42.8321 0.163887 42.7193 0.0945116 42.5971 0.0512695V6.73786C42.5971 7.22325 42.9906 7.61676 43.476 7.61676H50.1624C50.119 7.49454 50.0497 7.3818 49.9564 7.28829L42.9255 0.257285Z" fill="#F5F7FA"/>
<path d="M42.304 26.7764H17.6961C17.2107 26.7764 16.8172 26.3828 16.8172 25.8975C16.8172 25.412 17.2107 25.0186 17.6961 25.0186H42.304C42.7894 25.0186 43.1829 25.412 43.1829 25.8975C43.1829 26.3828 42.7894 26.7764 42.304 26.7764Z" fill="#656D78"/>
<path d="M42.304 31.4648H17.6961C17.2107 31.4648 16.8172 31.0713 16.8172 30.5859C16.8172 30.1004 17.2107 29.707 17.6961 29.707H42.304C42.7894 29.707 43.1829 30.1004 43.1829 30.5859C43.1829 31.0713 42.7894 31.4648 42.304 31.4648Z" fill="#656D78"/>
<path d="M42.304 36.1523H17.6961C17.2107 36.1523 16.8172 35.7588 16.8172 35.2734C16.8172 34.7879 17.2107 34.3945 17.6961 34.3945H42.304C42.7894 34.3945 43.1829 34.7879 43.1829 35.2734C43.1829 35.7588 42.7894 36.1523 42.304 36.1523Z" fill="#656D78"/>
<path d="M28.2423 40.8398H17.6961C17.2107 40.8398 16.8172 40.4463 16.8172 39.9609C16.8172 39.4754 17.2107 39.082 17.6961 39.082H28.2423C28.7276 39.082 29.1212 39.4754 29.1212 39.9609C29.1212 40.4463 28.7276 40.8398 28.2423 40.8398Z" fill="#656D78"/>
<path d="M46.6465 7.61719C46.6795 7.71047 46.6979 7.80914 46.6979 7.90992V54.0204C46.6979 54.5058 46.3044 54.8993 45.819 54.8993H49.3349C49.8203 54.8993 50.2138 54.5058 50.2138 54.0204V7.90992C50.2138 7.80914 50.1956 7.71047 50.1625 7.61719H46.6465Z" fill="#DADDE1"/>
<path d="M37.032 53.7304C33.6396 53.7304 30.8797 50.9704 30.8797 47.5781C30.8797 44.1857 33.6396 41.4258 37.032 41.4258C40.4245 41.4258 43.1844 44.1857 43.1844 47.5781C43.1844 50.9704 40.4245 53.7304 37.032 53.7304Z" fill="#ED5565"/>
<path d="M37.032 53.7306C35.5947 53.7306 34.2721 53.2339 33.2236 52.4048V59.121C33.2236 59.1304 33.2247 59.1394 33.225 59.1487C33.2256 59.1666 33.2261 59.1845 33.2277 59.2024C33.2289 59.2149 33.2309 59.2273 33.2325 59.2396C33.2346 59.2558 33.2369 59.2717 33.2399 59.2877C33.2425 59.301 33.2459 59.3141 33.2491 59.3273C33.2526 59.3419 33.256 59.3565 33.2603 59.371C33.2644 59.3847 33.2692 59.3982 33.274 59.4118C33.2787 59.4251 33.2833 59.4386 33.2887 59.4518C33.2944 59.4659 33.3009 59.4794 33.3073 59.4932C33.313 59.5054 33.3186 59.5177 33.3249 59.5298C33.3325 59.5441 33.3408 59.5579 33.3491 59.5717C33.3556 59.5826 33.3618 59.5935 33.3687 59.604C33.3784 59.6187 33.3891 59.6328 33.3996 59.647C33.4054 59.6545 33.4103 59.6625 33.4163 59.67C33.4175 59.6716 33.4189 59.6726 33.42 59.6741C33.4397 59.6985 33.4606 59.7218 33.4827 59.744C33.4889 59.7502 33.4957 59.7556 33.5022 59.7616C33.5182 59.7767 33.5346 59.7915 33.5519 59.8053C33.5622 59.8136 33.5728 59.8212 33.5835 59.8289C33.5979 59.8395 33.6123 59.8498 33.6272 59.8594C33.6385 59.8668 33.6498 59.8735 33.6614 59.8803C33.677 59.8893 33.693 59.8979 33.7091 59.9061C33.7202 59.9116 33.7312 59.9171 33.7425 59.9221C33.7605 59.9302 33.7789 59.9375 33.7974 59.9443C33.8075 59.948 33.8174 59.952 33.8276 59.9554C33.8484 59.9623 33.8697 59.9678 33.8911 59.9732C33.8997 59.9753 33.9081 59.9779 33.9167 59.9798C33.9403 59.9849 33.9645 59.9886 33.9889 59.9917C33.9957 59.9927 34.0023 59.9942 34.0091 59.9948C34.0378 59.9978 34.067 59.9993 34.0966 59.9996C34.0988 59.9996 34.101 59.9999 34.1032 59.9999C34.1042 59.9999 34.105 59.9997 34.1059 59.9997C34.1488 59.9996 34.1907 59.9955 34.2318 59.9894C34.2407 59.988 34.2494 59.9869 34.2583 59.9853C34.3001 59.9779 34.3408 59.9677 34.3803 59.9545C34.3875 59.952 34.3946 59.9492 34.4017 59.9466C34.4438 59.9314 34.4848 59.9139 34.5237 59.8926C34.5251 59.8918 34.5264 59.8908 34.5278 59.8901C34.5688 59.8675 34.6074 59.8414 34.6439 59.8127C34.6465 59.8107 34.6493 59.8094 34.6519 59.8074L37.0324 57.9029L39.4129 59.8074C39.4155 59.8094 39.4181 59.8106 39.4207 59.8125C39.4574 59.8413 39.496 59.8675 39.537 59.8902C39.5384 59.8909 39.5397 59.8919 39.5411 59.8927C39.5799 59.914 39.621 59.9315 39.6631 59.9467C39.6702 59.9493 39.6772 59.9522 39.6844 59.9546C39.7239 59.9676 39.7647 59.9779 39.8064 59.9854C39.8152 59.987 39.824 59.9881 39.8329 59.9895C39.874 59.9956 39.9157 59.9997 39.9586 59.9998C39.9596 59.9998 39.9605 60 39.9614 60C39.9634 60 39.9654 59.9998 39.9674 59.9997C39.9972 59.9996 40.0266 59.9979 40.0556 59.9949C40.0621 59.9942 40.0684 59.9928 40.075 59.9921C40.0996 59.9889 40.1242 59.985 40.1481 59.9799C40.1564 59.978 40.1645 59.9756 40.1727 59.9734C40.1945 59.9681 40.2162 59.9623 40.2373 59.9554C40.2471 59.9522 40.2569 59.9482 40.2666 59.9446C40.2856 59.9376 40.3042 59.9303 40.3225 59.9221C40.3335 59.9172 40.3444 59.9118 40.3552 59.9064C40.3716 59.8982 40.3878 59.8894 40.4036 59.8802C40.4149 59.8736 40.4262 59.8669 40.4374 59.8597C40.4524 59.8499 40.4671 59.8396 40.4815 59.8289C40.4921 59.8212 40.5027 59.8137 40.5129 59.8055C40.5301 59.7916 40.5467 59.7767 40.5628 59.7615C40.5692 59.7555 40.5757 59.7502 40.5819 59.7441C40.6041 59.7221 40.6251 59.6986 40.6447 59.6743C40.6459 59.6727 40.6473 59.6717 40.6485 59.6702C40.6545 59.6628 40.6593 59.6548 40.665 59.6473C40.6757 59.6331 40.6863 59.619 40.6962 59.6041C40.7031 59.5935 40.7092 59.5826 40.7158 59.572C40.7241 59.558 40.7325 59.5442 40.7401 59.5298C40.7465 59.5178 40.752 59.5056 40.7576 59.4934C40.764 59.4797 40.7705 59.4661 40.7762 59.452C40.7816 59.4387 40.7862 59.4252 40.7909 59.4119C40.7957 59.3984 40.8005 59.3849 40.8046 59.3711C40.8089 59.3566 40.8123 59.3419 40.8158 59.3273C40.819 59.3143 40.8224 59.3011 40.825 59.2878C40.828 59.2717 40.8301 59.2557 40.8324 59.2396C40.834 59.2273 40.836 59.215 40.8372 59.2025C40.8388 59.1847 40.8393 59.1666 40.8399 59.1487C40.8402 59.1394 40.8413 59.1304 40.8413 59.121L40.841 52.4049C39.792 53.2339 38.4693 53.7306 37.032 53.7306Z" fill="#DA4453"/>
<path d="M37.0321 50.2148C35.5782 50.2148 34.3954 49.0319 34.3954 47.5781C34.3954 46.1242 35.5782 44.9414 37.0321 44.9414C38.486 44.9414 39.6688 46.1242 39.6688 47.5781C39.6688 49.0319 38.486 50.2148 37.0321 50.2148Z" fill="#DA4453"/>
</g>
<defs>
<clipPath id="clip0">
<rect width="60" height="60" fill="white"/>
</clipPath>
</defs>
</svg>
