<svg width="60" height="61" viewBox="0 0 60 61" fill="none" xmlns="http://www.w3.org/2000/svg">
<g clip-path="url(#clip0)">
<path d="M43.8575 32.9648C43.1825 32.6623 42.3975 32.7798 41.8425 33.2748L31.445 42.5323C30.975 42.9498 30.745 43.5748 30.835 44.1998L32.51 55.8923C32.61 56.5948 33.1425 57.1373 33.815 57.3623L34.37 57.4498C34.8875 57.4498 35.41 57.2348 35.7775 56.8648C41.7 50.9398 44.9625 43.0623 44.9625 34.6773C44.965 33.9373 44.5325 33.2673 43.8575 32.9648Z" fill="#2196F3"/>
<path d="M25.9575 15.6675C17.5725 15.6675 9.69252 18.93 3.77002 24.8525L3.68252 24.9375C3.18002 25.44 3.00502 26.1825 3.23002 26.855C3.45502 27.53 4.04002 28.0175 4.74252 28.1175L16.435 29.7925L16.7 29.8125C17.23 29.8125 17.7425 29.5875 18.1 29.185L27.3575 18.7875C27.85 18.235 27.97 17.4475 27.6675 16.7725C27.365 16.1 26.695 15.6675 25.9575 15.6675Z" fill="#2196F3"/>
<path d="M29.695 48.5097C29.215 48.5097 28.735 48.3247 28.37 47.9597L12.6725 32.2622C11.97 31.5597 11.9375 30.4296 12.6 29.6871L24.365 16.5096C32.6975 6.75715 46.225 0.38715 58.1625 0.64215C59.1625 0.66465 59.97 1.47215 59.9925 2.47215C60.2675 14.3422 53.88 27.9347 44.095 36.2947L30.9475 48.0322C30.5875 48.3521 30.1425 48.5097 29.695 48.5097Z" fill="#ECEFF1"/>
<path d="M42.8325 24.0474C41.23 24.0474 39.63 23.4374 38.4125 22.2199C35.9775 19.7824 35.9775 15.8174 38.4125 13.3799C40.85 10.9424 44.815 10.9424 47.2525 13.3799C49.6875 15.8174 49.6875 19.7824 47.2525 22.2199C46.0325 23.4399 44.4325 24.0474 42.8325 24.0474Z" fill="#2196F3"/>
<path d="M1.87581 60.6325C1.38581 60.6325 0.905811 60.44 0.550811 60.0825C0.063311 59.595 -0.116689 58.88 0.080811 58.2175C0.708311 56.115 3.98081 45.495 6.53581 42.9425C9.51831 39.9625 14.7133 39.9625 17.6908 42.9425C19.1808 44.435 20.0008 46.4125 20.0008 48.5225C20.0008 50.63 19.1808 52.61 17.6908 54.1C15.1383 56.6525 4.51581 59.925 2.41581 60.555L1.87581 60.6325Z" fill="#FF9800"/>
<path d="M25.0925 15.6772C17.0325 15.8947 9.49002 19.1322 3.76752 24.8522L3.68252 24.9372C3.18002 25.4397 3.00502 26.1822 3.23002 26.8547C3.45502 27.5297 4.04002 28.0172 4.74252 28.1172L12.95 29.2947L24.365 16.5072C24.6025 16.2297 24.845 15.9522 25.0925 15.6772Z" fill="#1D83D4"/>
<path d="M57.465 0.632324C46.045 0.632324 33.305 6.57983 25.0925 15.6773C24.845 15.9523 24.6025 16.2273 24.3625 16.5073L12.95 29.2948L12.6 29.6873C11.9375 30.4298 11.97 31.5598 12.6725 32.2623L20.5225 40.1123L38.4125 22.2223C35.9775 19.7848 35.9775 15.8198 38.4125 13.3823C39.63 12.1648 41.2325 11.5548 42.8325 11.5548C44.4325 11.5548 46.035 12.1648 47.2525 13.3823L59.445 1.18982C59.115 0.859824 58.6625 0.652324 58.1625 0.639824C57.93 0.634824 57.6975 0.632324 57.465 0.632324V0.632324Z" fill="#CDD0D2"/>
<path d="M42.8325 11.5547C41.2325 11.5547 39.63 12.1647 38.4125 13.3822C35.9775 15.8197 35.9775 19.7847 38.4125 22.2222L47.25 13.3822C46.0325 12.1622 44.4325 11.5547 42.8325 11.5547Z" fill="#1D83D4"/>
<path d="M12.1117 40.7075C10.0667 40.7075 8.02416 41.4525 6.53166 42.9425C3.97916 45.495 0.706661 56.1175 0.0766606 58.2175C-0.120839 58.8775 0.0591606 59.595 0.546661 60.0825L17.6867 42.9425C16.1992 41.4525 14.1567 40.7075 12.1117 40.7075Z" fill="#DE8400"/>
</g>
<defs>
<clipPath id="clip0">
<rect width="60" height="60" fill="white" transform="translate(0 0.632324)"/>
</clipPath>
</defs>
</svg>
