<svg width="170" height="182" viewBox="0 0 170 182" fill="none" xmlns="http://www.w3.org/2000/svg">
<g clip-path="url(#clip0)" filter="url(#filter0_d)">
<path d="M125.18 168.51H18.3119C17.3948 168.51 16.6517 167.766 16.6517 166.85V47.7828L126.84 37.9543V166.85C126.84 167.766 126.097 168.51 125.18 168.51Z" fill="#EEF5F6"/>
<path d="M36.0052 47.7829H16.6517V31.6584C16.6517 30.7417 17.3948 29.9983 18.3119 29.9983H36.0048V47.7829H36.0052Z" fill="#B3DAFE"/>
<path d="M138.434 155.255H31.5659C30.6492 155.255 29.9058 154.512 29.9058 153.595V34.5286L140.094 23.981V153.595C140.094 154.512 139.351 155.255 138.434 155.255Z" fill="#FFE177"/>
<path d="M47.6904 34.5287H29.9058V18.4043C29.9058 17.4876 30.6492 16.7441 31.5659 16.7441H47.6904V34.5287Z" fill="#6354B1"/>
<path d="M151.688 141.67L141.727 142.002H44.8198C43.9031 142.002 43.1597 141.258 43.1597 140.342V21.2748L143.388 11.2515H153.016V140.342C153.016 141.258 152.605 141.67 151.688 141.67Z" fill="#EEF5F6"/>
<path d="M130.494 51.851L120.749 52.183H66.0144C65.0977 52.183 64.3542 51.4396 64.3542 50.5228V39.771C64.3542 38.8543 65.0977 38.1108 66.0144 38.1108H120.693L130.494 38.4429C131.41 38.4429 131.822 38.8543 131.822 39.771V50.5228C131.822 51.4396 131.41 51.851 130.494 51.851Z" fill="#FFE177"/>
<path d="M79.789 81.551L74.8182 81.219H71.7144C70.7976 81.219 70.0542 81.9624 70.0542 82.8791V94.3989H81.1171V82.8791C81.1171 81.9624 80.7061 81.551 79.789 81.551Z" fill="#B3DAFE"/>
<path d="M102.291 72.3079L97.036 71.9758H94.2164C93.2994 71.9758 92.5563 72.7192 92.5563 73.636V94.3992H103.619V73.636C103.619 72.7189 103.208 72.3079 102.291 72.3079Z" fill="#FD8087"/>
<path d="M124.794 64.9663L119.154 64.6343H116.719C115.802 64.6343 115.059 65.3777 115.059 66.2944V94.3995H120.81H126.122V66.2944C126.122 65.3774 125.71 64.9663 124.794 64.9663Z" fill="#FFE177"/>
<path d="M153.349 21.2738V140.34C153.349 141.26 152.605 142 151.688 142H141.728C142.644 142 143.388 141.26 143.388 140.34V11.2498L153.349 21.2738Z" fill="#DEECF1"/>
<path d="M153.016 21.2748H43.1597V5.15039C43.1597 4.23365 43.9031 3.49023 44.8198 3.49023H141.727L151.688 3.82227C152.605 3.82227 153.016 4.23365 153.016 5.15039V21.2748Z" fill="#FD8087"/>
<path d="M153.349 5.15039V21.2738H143.388V5.15039C143.388 4.23398 142.644 3.49023 141.728 3.49023H151.688C152.605 3.49023 153.349 4.23398 153.349 5.15039Z" fill="#E6646E"/>
<path d="M132.155 39.7712V50.5224C132.155 51.4388 131.411 52.1826 130.495 52.1826H120.534C121.45 52.1826 122.194 51.4388 122.194 50.5224V39.7712C122.194 38.8548 121.45 38.1111 120.534 38.1111H130.495C131.411 38.1111 132.155 38.8548 132.155 39.7712Z" fill="#FFC344"/>
<path d="M126.454 66.2939V94.4004H120.81V66.2939C120.81 65.3775 120.066 64.6338 119.15 64.6338H124.794C125.71 64.6338 126.454 65.3775 126.454 66.2939Z" fill="#FFC344"/>
<path d="M103.952 73.6353V94.4005H98.3079V73.6353C98.3079 72.7188 97.5641 71.9751 96.6477 71.9751H102.292C103.209 71.9751 103.952 72.7188 103.952 73.6353Z" fill="#E6646E"/>
<path d="M81.4506 82.8789V94.4004H76.4701V82.8789C76.4701 81.9625 75.7263 81.2188 74.8099 81.2188H79.7904C80.7068 81.2188 81.4506 81.9625 81.4506 82.8789Z" fill="#8AC9FE"/>
<path d="M14.1615 166.85C14.1615 169.138 16.0232 171 18.3119 171H29.4489C30.8242 171 31.9391 169.885 31.9391 168.51C31.9391 167.134 30.8242 166.02 29.4489 166.02H19.142V50.2731H27.4155V120.799C27.4155 122.174 28.5305 123.289 29.9058 123.289C31.281 123.289 32.396 122.174 32.396 120.799V37.0191H40.6695V140.342C40.6695 142.631 42.5312 144.492 44.8199 144.492H137.604V152.766H32.396V131.652C32.396 130.277 31.281 129.162 29.9058 129.162C28.5305 129.162 27.4155 130.277 27.4155 131.652V153.596C27.4155 155.885 29.2772 157.746 31.5659 157.746H124.35V166.02H40.3023C38.927 166.02 37.8121 167.134 37.8121 168.51C37.8121 169.885 38.927 171 40.3023 171H125.18C127.469 171 129.331 169.138 129.331 166.85V157.746H138.434C140.722 157.746 142.585 155.884 142.585 153.596V144.492H151.688C153.977 144.492 155.839 142.63 155.839 140.342V117.126C155.839 115.751 154.724 114.636 153.348 114.636C151.973 114.636 150.858 115.751 150.858 117.126V139.511H45.65V23.7651H150.858V106.273C150.858 107.649 151.973 108.764 153.348 108.764C154.723 108.764 155.838 107.649 155.838 106.273V5.15039C155.838 2.8617 153.977 1 151.688 1H44.8199C42.5312 1 40.6695 2.8617 40.6695 5.15039V14.254H31.5659C29.2772 14.254 27.4155 16.1157 27.4155 18.4044V27.508H18.3119C16.0232 27.508 14.1615 29.3697 14.1615 31.6584V166.85ZM27.4155 45.2926H19.142V32.4885H27.4155V45.2926ZM32.396 32.0386V19.2345H40.6695V21.2748V32.0386H32.396ZM45.65 5.98047H150.858V18.7846H45.65V5.98047Z" fill="black"/>
<path d="M132.154 105.981H64.3542C62.979 105.981 61.864 107.096 61.864 108.471C61.864 109.846 62.979 110.961 64.3542 110.961H132.153C133.529 110.961 134.644 109.846 134.644 108.471C134.644 107.096 133.529 105.981 132.154 105.981Z" fill="black"/>
<path d="M132.154 91.9088H128.944V66.2939C128.944 64.0053 127.082 62.1436 124.794 62.1436H116.719C114.43 62.1436 112.568 64.0053 112.568 66.2939V91.9088H106.442V73.6355C106.442 71.3468 104.58 69.4851 102.291 69.4851H94.2168C91.9281 69.4851 90.0664 71.3468 90.0664 73.6355V91.9088H83.9394V82.8792C83.9394 80.5906 82.0777 78.7289 79.789 78.7289H71.7144C69.4257 78.7289 67.564 80.5906 67.564 82.8792V91.9088H64.3542C62.979 91.9088 61.864 93.0238 61.864 94.3991C61.864 95.7743 62.979 96.8893 64.3542 96.8893H132.153C133.529 96.8893 134.644 95.7743 134.644 94.3991C134.644 93.0238 133.529 91.9088 132.154 91.9088ZM117.549 67.124H123.963V91.9088H117.549V67.124ZM95.0469 74.4659H101.461V91.9092H95.0469V74.4659ZM72.5445 83.7093H78.959V91.9088H72.5445V83.7093Z" fill="black"/>
<path d="M132.154 120.053H64.3542C62.979 120.053 61.864 121.168 61.864 122.543C61.864 123.918 62.979 125.033 64.3542 125.033H132.153C133.529 125.033 134.644 123.918 134.644 122.543C134.644 121.168 133.529 120.053 132.154 120.053Z" fill="black"/>
<path d="M134.644 39.771C134.644 37.4826 132.782 35.6206 130.494 35.6206H66.0144C63.7257 35.6206 61.864 37.4826 61.864 39.771V50.5228C61.864 52.8115 63.7257 54.6732 66.0144 54.6732H130.493C132.782 54.6732 134.644 52.8115 134.644 50.5228V39.771H134.644ZM129.663 49.6927H66.8445V40.6011H129.663V49.6927H129.663Z" fill="black"/>
<path d="M54.0295 9.86597C52.6396 9.86597 51.5127 10.9929 51.5127 12.3828C51.5127 13.7726 52.6393 14.8996 54.0295 14.8996C55.4194 14.8996 56.5463 13.773 56.5463 12.3828C56.5459 10.9925 55.4194 9.86597 54.0295 9.86597Z" fill="black"/>
<path d="M62.0946 9.86597C60.7047 9.86597 59.5778 10.9929 59.5778 12.3828C59.5778 13.7726 60.7047 14.8996 62.0946 14.8996C63.4844 14.8996 64.6113 13.773 64.6113 12.3828C64.611 10.9925 63.4844 9.86597 62.0946 9.86597Z" fill="black"/>
<path d="M70.1596 9.86597C68.7697 9.86597 67.6428 10.9929 67.6428 12.3828C67.6428 13.7726 68.7694 14.8996 70.1596 14.8996C71.5495 14.8996 72.6764 13.773 72.6764 12.3828C72.6761 10.9925 71.5495 9.86597 70.1596 9.86597Z" fill="black"/>
</g>
<defs>
<filter id="filter0_d" x="-6" y="0" width="182" height="182" filterUnits="userSpaceOnUse" color-interpolation-filters="sRGB">
<feFlood flood-opacity="0" result="BackgroundImageFix"/>
<feColorMatrix in="SourceAlpha" type="matrix" values="0 0 0 0 0 0 0 0 0 0 0 0 0 0 0 0 0 0 127 0"/>
<feOffset dy="5"/>
<feGaussianBlur stdDeviation="3"/>
<feColorMatrix type="matrix" values="0 0 0 0 0 0 0 0 0 0 0 0 0 0 0 0 0 0 0.21 0"/>
<feBlend mode="normal" in2="BackgroundImageFix" result="effect1_dropShadow"/>
<feBlend mode="normal" in="SourceGraphic" in2="effect1_dropShadow" result="shape"/>
</filter>
<clipPath id="clip0">
<rect width="170" height="170" fill="white" transform="translate(0 1)"/>
</clipPath>
</defs>
</svg>
