<svg width="121" height="132" viewBox="0 0 121 132" fill="none" xmlns="http://www.w3.org/2000/svg">
<g clip-path="url(#clip0)" filter="url(#filter0_d)">
<path d="M103.499 38.2834C95.4316 38.2834 46.2906 38.2834 39.3334 38.2834C38.0786 38.2834 37.0614 39.3006 37.0614 40.5555V64.0872C37.0614 65.3421 38.0786 66.3592 39.3334 66.3592H95.1423C96.2762 66.3592 97.2798 65.6247 97.6225 64.5438L105.211 40.6225C105.579 39.4647 104.714 38.2834 103.499 38.2834Z" fill="#70D6F9"/>
<path d="M39.3335 66.3597C38.0786 66.3597 37.0614 65.3425 37.0614 64.0877V40.5555C37.0614 39.3006 38.0786 38.2834 39.3335 38.2834H93.9114V12.4684C93.9114 9.28703 91.3085 6.68359 88.1266 6.68359H41.08L17.4541 30.3091V104.844C17.4541 108.025 20.0571 110.629 23.2389 110.629H88.1271C91.3085 110.629 93.9119 108.026 93.9119 104.844V66.3592H39.3335V66.3597Z" fill="#EDF4FC"/>
<path d="M17.4541 30.3091H35.2952C38.4766 30.3091 41.08 27.7061 41.08 24.5242V6.68359L17.4541 30.3091Z" fill="#70D6F9"/>
<path d="M25.1847 10.1645C23.2399 10.5269 21.7071 12.0283 21.3372 13.9338C21.3185 14.0294 21.1849 14.0294 21.1666 13.9338C20.7968 12.0283 19.2639 10.5269 17.3191 10.1645C17.2216 10.1463 17.2216 10.0155 17.3191 9.99719C19.2639 9.63484 20.7968 8.13344 21.1666 6.22797C21.1853 6.13234 21.3189 6.13234 21.3372 6.22797C21.7071 8.13344 23.2399 9.63484 25.1847 9.99719C25.2822 10.0155 25.2822 10.1463 25.1847 10.1645Z" fill="#F5C84C"/>
<path d="M104.635 72.2491C103.271 72.5031 102.196 73.5564 101.936 74.8928C101.923 74.9599 101.83 74.9599 101.817 74.8928C101.558 73.5564 100.482 72.5031 99.1183 72.2491C99.0499 72.2364 99.0499 72.1445 99.1183 72.1319C100.482 71.8778 101.558 70.8245 101.817 69.4881C101.83 69.4211 101.924 69.4211 101.936 69.4881C102.196 70.8245 103.271 71.8778 104.635 72.1319C104.704 72.1445 104.704 72.236 104.635 72.2491Z" fill="#FC657E"/>
<path d="M35.9955 4.16594C36.8698 4.16594 37.5785 3.45722 37.5785 2.58297C37.5785 1.70872 36.8698 1 35.9955 1C35.1213 1 34.4125 1.70872 34.4125 2.58297C34.4125 3.45722 35.1213 4.16594 35.9955 4.16594Z" fill="#70D6F9"/>
<path d="M100.683 85.2597C101.557 85.2597 102.266 84.551 102.266 83.6767C102.266 82.8025 101.557 82.0938 100.683 82.0938C99.8088 82.0938 99.1001 82.8025 99.1001 83.6767C99.1001 84.551 99.8088 85.2597 100.683 85.2597Z" fill="#F5C84C"/>
<path d="M57.7797 116.668H56.9247V115.813C56.9247 115.173 56.4058 114.654 55.7655 114.654C55.1252 114.654 54.6063 115.173 54.6063 115.813V116.668H53.7513C53.1109 116.668 52.592 117.187 52.592 117.827C52.592 118.467 53.1109 118.986 53.7513 118.986H54.6063V119.841C54.6063 120.482 55.1252 121.001 55.7655 121.001C56.4058 121.001 56.9247 120.482 56.9247 119.841V118.986H57.7797C58.42 118.986 58.9389 118.467 58.9389 117.827C58.9389 117.187 58.4195 116.668 57.7797 116.668Z" fill="#87D147"/>
<path d="M70.3942 118.658C71.2685 118.658 71.9772 117.949 71.9772 117.075C71.9772 116.201 71.2685 115.492 70.3942 115.492C69.52 115.492 68.8113 116.201 68.8113 117.075C68.8113 117.949 69.52 118.658 70.3942 118.658Z" fill="#70D6F9"/>
<path d="M95.1428 67.5316H39.3334C37.4345 67.5316 35.8895 65.9866 35.8895 64.0872V40.5555C35.8895 38.6566 37.4345 37.1116 39.3334 37.1116H103.499C104.455 37.1116 105.328 37.5545 105.894 38.3266C106.459 39.0986 106.617 40.0647 106.328 40.9774L98.74 64.8991C98.2403 66.4732 96.7947 67.5316 95.1428 67.5316ZM39.3334 39.4553C38.7269 39.4553 38.2333 39.9489 38.2333 40.5555V64.0872C38.2333 64.6938 38.7269 65.1878 39.3334 65.1878H95.1428C95.7691 65.1878 96.3166 64.7871 96.5059 64.1903L104.094 40.2691C104.177 40.0061 104.072 39.8069 104.003 39.7113C103.933 39.6156 103.774 39.4558 103.499 39.4558H39.3334V39.4553Z" fill="black"/>
<path d="M88.1271 111.801H23.2389C19.4027 111.801 16.2822 108.68 16.2822 104.844V30.3091C16.2822 29.9983 16.406 29.7002 16.6254 29.4803L40.2508 5.85484C40.4707 5.635 40.7683 5.51172 41.0796 5.51172H88.1266C91.9629 5.51172 95.0833 8.63266 95.0833 12.4684V38.0022C95.0833 38.6495 94.5588 39.1741 93.9114 39.1741C93.2641 39.1741 92.7396 38.6495 92.7396 38.0022V12.4684C92.7396 9.925 90.67 7.85547 88.1266 7.85547H41.5652L18.626 30.7947V104.844C18.626 107.387 20.6955 109.457 23.2389 109.457H88.1271C90.6705 109.457 92.74 107.387 92.74 104.844V66.5861C92.74 65.9388 93.2646 65.4142 93.9119 65.4142C94.5592 65.4142 95.0838 65.9388 95.0838 66.5861V104.844C95.0838 108.68 91.9628 111.801 88.1271 111.801Z" fill="black"/>
<path d="M56.2741 46.7936C58.6272 46.7936 60.2519 47.9997 60.9672 49.855C61.0019 49.9454 61.0891 50.005 61.1861 50.005H63.2013C63.3588 50.005 63.4694 49.8531 63.4263 49.705C62.5225 46.599 60.0864 44.5609 56.2952 44.5609C53.3725 44.5609 51.1286 46 49.9263 48.3189C48.7071 50.6711 48.6883 53.9818 49.9268 56.3542C51.1113 58.6276 53.336 60.1014 56.2952 60.1014C60.0878 60.1014 62.523 58.0628 63.4263 54.9578C63.4694 54.8097 63.3583 54.6578 63.2013 54.6578H61.1861C61.0891 54.6578 61.0019 54.7173 60.9672 54.8078C60.2538 56.6594 58.6314 57.8692 56.2741 57.8692C54.4868 57.8692 52.9539 56.9978 52.0853 55.2897C51.2252 53.597 51.2425 51.0569 52.0858 49.3825C52.9474 47.6753 54.4717 46.7936 56.2741 46.7936Z" fill="black"/>
<path d="M70.8086 51.2692C69.1567 50.7381 67.5498 50.2942 67.5498 48.5743C67.5498 47.199 68.5065 46.5207 69.8551 46.5207C71.4048 46.5207 72.3147 47.4728 72.5214 48.5551C72.5425 48.6657 72.639 48.7454 72.7515 48.7454H74.8089C74.9491 48.7454 75.0597 48.6217 75.0414 48.4815C74.7583 46.2789 72.992 44.5197 69.8551 44.5197C67.0183 44.5197 65.0237 46.06 65.0237 48.6372C65.0237 51.4993 66.9962 52.3028 69.4905 53.1222C71.2426 53.6748 72.8533 54.2036 72.8533 55.9632C72.8533 57.1754 72.1 58.1218 70.4847 58.1218C68.792 58.1218 67.7191 57.0161 67.5897 55.7298C67.578 55.6098 67.4772 55.5189 67.3567 55.5189H65.3205C65.1831 55.5189 65.0744 55.6365 65.087 55.7739C65.3261 58.4884 67.6994 60.1229 70.547 60.1229C73.6094 60.1229 75.3578 58.2161 75.3578 55.9004C75.3583 52.9318 73.3848 52.1031 70.8086 51.2692Z" fill="black"/>
<path d="M79.4725 48.5743C79.4725 47.199 80.4292 46.5207 81.7778 46.5207C83.3275 46.5207 84.2373 47.4728 84.4441 48.5551C84.4652 48.6657 84.5617 48.7454 84.6742 48.7454H86.7316C86.8717 48.7454 86.9824 48.6217 86.9641 48.4815C86.6809 46.2789 84.9147 44.5197 81.7778 44.5197C78.9409 44.5197 76.9464 46.06 76.9464 48.6372C76.9464 54.212 84.7759 52.0848 84.7759 55.9628C84.7759 57.175 84.0227 58.1214 82.4073 58.1214C80.6463 58.1214 79.6356 56.9575 79.5123 55.7293C79.5006 55.6093 79.3998 55.5184 79.2794 55.5184H77.2431C77.1058 55.5184 76.997 55.6361 77.0097 55.7734C77.2488 58.4879 79.622 60.1225 82.4697 60.1225C85.532 60.1225 87.2805 58.2156 87.2805 55.9C87.2809 50.1573 79.4725 52.3107 79.4725 48.5743Z" fill="black"/>
<path d="M80.5394 76.6062H41.7147C41.0674 76.6062 40.5428 76.0817 40.5428 75.4343C40.5428 74.787 41.0674 74.2625 41.7147 74.2625H80.5394C81.1868 74.2625 81.7113 74.787 81.7113 75.4343C81.7113 76.0817 81.1868 76.6062 80.5394 76.6062Z" fill="black"/>
<path d="M37.7449 76.6062H30.8261C30.1788 76.6062 29.6542 76.0817 29.6542 75.4343C29.6542 74.787 30.1788 74.2625 30.8261 74.2625H37.7449C38.3922 74.2625 38.9167 74.787 38.9167 75.4343C38.9167 76.0817 38.3922 76.6062 37.7449 76.6062Z" fill="black"/>
<path d="M80.5394 82.8282H56.9261C56.2788 82.8282 55.7543 82.3037 55.7543 81.6564C55.7543 81.009 56.2788 80.4845 56.9261 80.4845H80.5394C81.1868 80.4845 81.7113 81.009 81.7113 81.6564C81.7113 82.3037 81.1868 82.8282 80.5394 82.8282Z" fill="black"/>
<path d="M52.7786 82.8282H30.8261C30.1788 82.8282 29.6542 82.3037 29.6542 81.6564C29.6542 81.009 30.1788 80.4845 30.8261 80.4845H52.7782C53.4255 80.4845 53.95 81.009 53.95 81.6564C53.95 82.3037 53.4255 82.8282 52.7786 82.8282Z" fill="black"/>
<path d="M80.5394 89.0511H72.2899C71.6425 89.0511 71.118 88.5266 71.118 87.8793C71.118 87.2319 71.6425 86.7074 72.2899 86.7074H80.5394C81.1867 86.7074 81.7113 87.2319 81.7113 87.8793C81.7113 88.5266 81.1867 89.0511 80.5394 89.0511Z" fill="black"/>
<path d="M68.2642 89.0511H30.8261C30.1788 89.0511 29.6542 88.5266 29.6542 87.8793C29.6542 87.2319 30.1788 86.7074 30.8261 86.7074H68.2638C68.9111 86.7074 69.4356 87.2319 69.4356 87.8793C69.4356 88.5266 68.9116 89.0511 68.2642 89.0511Z" fill="black"/>
<path d="M80.5394 95.2732H47.4579C46.8105 95.2732 46.286 94.7487 46.286 94.1013C46.286 93.454 46.8105 92.9294 47.4579 92.9294H80.5394C81.1868 92.9294 81.7113 93.454 81.7113 94.1013C81.7113 94.7487 81.1868 95.2732 80.5394 95.2732Z" fill="black"/>
<path d="M43.2999 95.2732H30.8265C30.1791 95.2732 29.6546 94.7487 29.6546 94.1013C29.6546 93.454 30.1791 92.9294 30.8265 92.9294H43.2999C43.9472 92.9294 44.4718 93.454 44.4718 94.1013C44.4718 94.7487 43.9472 95.2732 43.2999 95.2732Z" fill="black"/>
<path d="M80.5394 101.495H56.9261C56.2788 101.495 55.7543 100.971 55.7543 100.323C55.7543 99.6761 56.2788 99.1516 56.9261 99.1516H80.5394C81.1868 99.1516 81.7113 99.6761 81.7113 100.323C81.7113 100.971 81.1868 101.495 80.5394 101.495Z" fill="black"/>
<path d="M52.7786 101.495H30.8261C30.1788 101.495 29.6542 100.971 29.6542 100.323C29.6542 99.6761 30.1788 99.1516 30.8261 99.1516H52.7782C53.4255 99.1516 53.95 99.6761 53.95 100.323C53.95 100.971 53.4255 101.495 52.7786 101.495Z" fill="black"/>
<path d="M35.2952 31.4811H17.8281C17.1808 31.4811 16.6562 30.9565 16.6562 30.3092C16.6562 29.6618 17.1808 29.1373 17.8281 29.1373H35.2952C37.8386 29.1373 39.9081 27.0678 39.9081 24.5243V6.80701C39.9081 6.15966 40.4327 5.63513 41.08 5.63513C41.7273 5.63513 42.2519 6.15966 42.2519 6.80701V24.5243C42.2519 28.3606 39.1309 31.4811 35.2952 31.4811Z" fill="black"/>
</g>
<defs>
<filter id="filter0_d" x="-5.75" y="0" width="132" height="132" filterUnits="userSpaceOnUse" color-interpolation-filters="sRGB">
<feFlood flood-opacity="0" result="BackgroundImageFix"/>
<feColorMatrix in="SourceAlpha" type="matrix" values="0 0 0 0 0 0 0 0 0 0 0 0 0 0 0 0 0 0 127 0"/>
<feOffset dy="5"/>
<feGaussianBlur stdDeviation="3"/>
<feColorMatrix type="matrix" values="0 0 0 0 0 0 0 0 0 0 0 0 0 0 0 0 0 0 0.21 0"/>
<feBlend mode="normal" in2="BackgroundImageFix" result="effect1_dropShadow"/>
<feBlend mode="normal" in="SourceGraphic" in2="effect1_dropShadow" result="shape"/>
</filter>
<clipPath id="clip0">
<rect width="120" height="120" fill="white" transform="translate(0.25 1)"/>
</clipPath>
</defs>
</svg>
