<svg width="120" height="133" viewBox="0 0 120 133" fill="none" xmlns="http://www.w3.org/2000/svg">
<g clip-path="url(#clip0)" filter="url(#filter0_d)">
<path d="M39.0834 66.389C37.8285 66.389 36.8113 65.3718 36.8113 64.117V40.5848C36.8113 39.3299 37.8285 38.3127 39.0834 38.3127H93.6613V12.4977C93.6613 9.31633 91.0584 6.71289 87.8765 6.71289H40.8299L17.204 30.3384V104.873C17.204 108.055 19.8069 110.658 22.9888 110.658H87.877C91.0584 110.658 93.6618 108.055 93.6618 104.873V66.3885H39.0834V66.389Z" fill="#EDF4FC"/>
<path d="M96.7021 38.3129H39.0834C37.8285 38.3129 36.8113 39.3301 36.8113 40.5849V64.1166C36.8113 65.3715 37.8285 66.3887 39.0834 66.3887H96.7021C97.957 66.3887 98.9742 65.3715 98.9742 64.1166V40.5849C98.9742 39.3301 97.957 38.3129 96.7021 38.3129Z" fill="#FC8C48"/>
<path d="M17.204 30.3384H35.0451C38.2265 30.3384 40.8299 27.7354 40.8299 24.5535V6.71289L17.204 30.3384Z" fill="#FCA265"/>
<path d="M74.5049 85.4419L64.4793 77.9091C63.4832 77.1605 62.0633 77.355 61.3091 78.3591C60.5591 79.357 60.7612 80.7792 61.7591 81.5292L69.3758 87.2517L61.7591 92.9742C60.7612 93.7247 60.5591 95.1469 61.3091 96.1444C62.0629 97.1471 63.486 97.3411 64.4793 96.5944L74.5054 89.0611C75.7096 88.1569 75.7115 86.3489 74.5049 85.4419Z" fill="#818182"/>
<path d="M48.8647 92.9746L41.2485 87.2521L48.8647 81.5296C49.8651 80.7777 50.0671 79.3598 49.3147 78.3594C48.5652 77.3615 47.1426 77.1594 46.1446 77.909L36.119 85.4423C35.5447 85.874 35.2152 86.534 35.2152 87.2526C35.2152 87.9712 35.5447 88.6307 36.119 89.0624L46.1446 96.5952C47.1444 97.3466 48.5633 97.1455 49.3147 96.1452C50.0652 95.1463 49.8674 93.7283 48.8647 92.9746Z" fill="#818182"/>
<path d="M59.564 74.992C58.3982 74.5795 57.096 75.1776 56.6737 76.3701L49.5009 96.622C49.0832 97.8014 49.6991 99.0942 50.879 99.5123C52.0649 99.9323 53.3535 99.3079 53.7688 98.1342L60.9416 77.8823C61.3612 76.7001 60.7415 75.4092 59.564 74.992Z" fill="#818182"/>
<path d="M24.9345 10.1938C22.9897 10.5562 21.4569 12.0576 21.087 13.963C21.0683 14.0587 20.9347 14.0587 20.9164 13.963C20.5466 12.0576 19.0138 10.5562 17.0689 10.1938C16.9714 10.1755 16.9714 10.0448 17.0689 10.0265C19.0138 9.66414 20.5466 8.16273 20.9164 6.25727C20.9352 6.16164 21.0688 6.16164 21.087 6.25727C21.4569 8.16273 22.9897 9.66414 24.9345 10.0265C25.032 10.0448 25.032 10.1755 24.9345 10.1938Z" fill="#FC657E"/>
<path d="M103.916 75.5596C102.552 75.8137 101.477 76.867 101.218 78.2034C101.204 78.2704 101.111 78.2704 101.098 78.2034C100.839 76.867 99.7635 75.8137 98.3994 75.5596C98.331 75.547 98.331 75.4551 98.3994 75.4424C99.7635 75.1884 100.839 74.1351 101.098 72.7987C101.111 72.7317 101.205 72.7317 101.218 72.7987C101.477 74.1351 102.552 75.1884 103.916 75.4424C103.985 75.4551 103.985 75.5465 103.916 75.5596Z" fill="#F5C84C"/>
<path d="M35.7454 4.19524C36.6197 4.19524 37.3284 3.48652 37.3284 2.61227C37.3284 1.73802 36.6197 1.0293 35.7454 1.0293C34.8712 1.0293 34.1625 1.73802 34.1625 2.61227C34.1625 3.48652 34.8712 4.19524 35.7454 4.19524Z" fill="#70D6F9"/>
<path d="M99.9642 88.5702C100.838 88.5702 101.547 87.8615 101.547 86.9873C101.547 86.113 100.838 85.4043 99.9642 85.4043C99.0899 85.4043 98.3812 86.113 98.3812 86.9873C98.3812 87.8615 99.0899 88.5702 99.9642 88.5702Z" fill="#87D147"/>
<path d="M57.5296 116.697H56.6746V115.842C56.6746 115.202 56.1557 114.683 55.5154 114.683C54.875 114.683 54.3561 115.202 54.3561 115.842V116.697H53.5011C52.8608 116.697 52.3419 117.216 52.3419 117.856C52.3419 118.497 52.8608 119.016 53.5011 119.016H54.3561V119.871C54.3561 120.511 54.875 121.03 55.5154 121.03C56.1557 121.03 56.6746 120.511 56.6746 119.871V119.016H57.5296C58.1699 119.016 58.6888 118.497 58.6888 117.856C58.6888 117.216 58.1694 116.697 57.5296 116.697Z" fill="#70D6F9"/>
<path d="M70.1441 118.687C71.0184 118.687 71.7271 117.979 71.7271 117.104C71.7271 116.23 71.0184 115.521 70.1441 115.521C69.2699 115.521 68.5612 116.23 68.5612 117.104C68.5612 117.979 69.2699 118.687 70.1441 118.687Z" fill="#F5C84C"/>
<path d="M96.7021 67.5608H39.0834C37.1845 67.5608 35.6395 66.0159 35.6395 64.1169V40.5848C35.6395 38.6854 37.1845 37.1404 39.0834 37.1404H96.7021C98.6015 37.1404 100.146 38.6854 100.146 40.5848V64.1165C100.146 66.0158 98.6015 67.5608 96.7021 67.5608ZM39.0834 39.4846C38.4768 39.4846 37.9832 39.9782 37.9832 40.5852V64.1169C37.9832 64.7235 38.4768 65.2171 39.0834 65.2171H96.7021C97.3091 65.2171 97.8027 64.7235 97.8027 64.1169V40.5848C97.8027 39.9782 97.3091 39.4841 96.7021 39.4841H39.0834V39.4846Z" fill="black"/>
<path d="M53.8757 44.6267H51.922C51.7907 44.6267 51.6848 44.7326 51.6848 44.8639V51.1044H44.5555V44.8639C44.5555 44.7326 44.4496 44.6267 44.3184 44.6267H42.3862C42.2549 44.6267 42.149 44.7326 42.149 44.8639V59.8372C42.149 59.9684 42.2549 60.0744 42.3862 60.0744H44.3184C44.4496 60.0744 44.5555 59.9684 44.5555 59.8372V53.1509H51.6848V59.8372C51.6848 59.9684 51.7907 60.0744 51.922 60.0744H53.8757C54.0069 60.0744 54.1129 59.9684 54.1129 59.8372V44.8639C54.1129 44.7331 54.0069 44.6267 53.8757 44.6267Z" fill="black"/>
<path d="M66.1517 44.6267H55.7661C55.6349 44.6267 55.5289 44.7326 55.5289 44.8639V46.4356C55.5289 46.5669 55.6349 46.6728 55.7661 46.6728H59.7557V59.8372C59.7557 59.9684 59.8616 60.0744 59.9928 60.0744H61.925C62.0563 60.0744 62.1622 59.9684 62.1622 59.8372V46.6728H66.1517C66.283 46.6728 66.3889 46.5669 66.3889 46.4356V44.8639C66.3889 44.7331 66.283 44.6267 66.1517 44.6267Z" fill="black"/>
<path d="M83.0568 44.8818H80.7421C80.646 44.8818 80.5598 44.9395 80.5228 45.0281L75.6004 56.8664L70.596 45.0267C70.5585 44.939 70.4728 44.8818 70.3771 44.8818H68.0624C67.9312 44.8818 67.8253 44.9878 67.8253 45.119V59.8373C67.8253 59.9686 67.9312 60.0745 68.0624 60.0745H69.9946C70.1259 60.0745 70.2318 59.9686 70.2318 59.8373V49.3584L74.4895 59.9259C74.5256 60.0154 74.6128 60.0745 74.7098 60.0745H76.4301C76.5271 60.0745 76.6143 60.0154 76.6504 59.9254L80.887 49.3256V59.8373C80.887 59.9686 80.9929 60.0745 81.1242 60.0745H83.0564C83.1876 60.0745 83.2935 59.9686 83.2935 59.8373V45.119C83.294 44.9878 83.1881 44.8818 83.0568 44.8818Z" fill="black"/>
<path d="M93.3997 58.092H88.3274V44.8639C88.3274 44.7326 88.2215 44.6267 88.0902 44.6267H86.158C86.0268 44.6267 85.9208 44.7326 85.9208 44.8639V59.8372C85.9208 59.9684 86.0268 60.0744 86.158 60.0744H93.4002C93.5315 60.0744 93.6374 59.9684 93.6374 59.8372V58.3292C93.6369 58.198 93.5305 58.092 93.3997 58.092Z" fill="black"/>
<path d="M87.877 111.83H22.9888C19.1526 111.83 16.0321 108.709 16.0321 104.873V30.3384C16.0321 30.0276 16.1559 29.7295 16.3752 29.5096L40.0007 5.88414C40.2205 5.6643 40.5182 5.54102 40.8294 5.54102H87.8765C91.7127 5.54102 94.8332 8.66195 94.8332 12.4977V37.8651C94.8332 38.5124 94.3087 39.037 93.6613 39.037C93.014 39.037 92.4895 38.5124 92.4895 37.8651V12.4977C92.4895 9.9543 90.4199 7.88477 87.8765 7.88477H41.3151L18.3759 30.824V104.873C18.3759 107.417 20.4454 109.486 22.9888 109.486H87.877C90.4204 109.486 92.4899 107.417 92.4899 104.873V66.757C92.4899 66.1096 93.0145 65.5851 93.6618 65.5851C94.3091 65.5851 94.8337 66.1096 94.8337 66.757V104.873C94.8337 108.709 91.7127 111.83 87.877 111.83Z" fill="black"/>
<path d="M35.045 31.5102H17.4805C16.8331 31.5102 16.3086 30.9857 16.3086 30.3383C16.3086 29.691 16.8331 29.1665 17.4805 29.1665H35.045C37.5884 29.1665 39.658 27.0969 39.658 24.5535V6.96692C39.658 6.31958 40.1825 5.79504 40.8298 5.79504C41.4772 5.79504 42.0017 6.31958 42.0017 6.96692V24.554C42.0017 28.3897 38.8808 31.5102 35.045 31.5102Z" fill="black"/>
<path d="M63.1236 98.2198C62.0793 98.2198 61.0471 97.7469 60.3725 96.8497C59.2344 95.3351 59.541 93.177 61.0546 92.0384L67.4249 87.2525L61.055 82.4665C59.5405 81.328 59.2344 79.1698 60.3725 77.6553C61.5111 76.1403 63.6688 75.8351 65.1838 76.9723L75.2094 84.5051H75.2099C76.0818 85.1609 76.5819 86.1626 76.5815 87.2525C76.5815 88.3428 76.0813 89.3436 75.2094 89.9984L65.1833 97.5317C64.566 97.9958 63.8422 98.2198 63.1236 98.2198ZM63.1208 78.627C62.7885 78.627 62.4604 78.7775 62.2457 79.063C61.8843 79.5439 61.9818 80.2301 62.4632 80.5925L70.0799 86.315C70.3743 86.5362 70.5477 86.8831 70.5477 87.252C70.5477 87.6209 70.3743 87.9673 70.0799 88.189L62.4632 93.9115C61.9822 94.2734 61.8843 94.9597 62.2461 95.4411C62.6075 95.922 63.2929 96.0204 63.7747 95.6586L73.8013 88.1253C74.0788 87.9172 74.2377 87.5989 74.2377 87.2525C74.2377 86.9061 74.0788 86.5878 73.8013 86.3787L63.7757 78.8459C63.5797 78.6983 63.3496 78.627 63.1208 78.627Z" fill="black"/>
<path d="M47.4979 98.2219C46.7591 98.2219 46.0429 97.9842 45.4405 97.5323L35.4149 89.9991C34.5435 89.3438 34.0433 88.3425 34.0433 87.2527C34.0433 86.1614 34.543 85.1602 35.4149 84.5053L45.4405 76.9725C46.1732 76.4222 47.0774 76.1892 47.9877 76.3186C48.8971 76.4475 49.7015 76.9228 50.2518 77.6559C50.8035 78.3891 51.0365 79.2942 50.9071 80.2027C50.7782 81.1111 50.3024 81.9145 49.5688 82.4662L43.1994 87.2522L49.5688 92.0381C50.3033 92.5903 50.7791 93.3956 50.9076 94.3041C51.0355 95.212 50.8026 96.1158 50.2513 96.8494C49.7001 97.583 48.8961 98.0583 47.9877 98.1872C47.8241 98.2106 47.6605 98.2219 47.4979 98.2219ZM47.5011 78.6277C47.2663 78.6277 47.039 78.7031 46.8486 78.8456L36.823 86.3784C36.5418 86.5898 36.3871 86.8997 36.3871 87.2522C36.3871 87.6038 36.5418 87.9141 36.8235 88.1255L46.8486 95.6583C47.0821 95.8336 47.369 95.9081 47.6586 95.8664C47.9469 95.8256 48.2024 95.6742 48.3777 95.4412C48.5535 95.2073 48.6276 94.9205 48.5868 94.6317C48.546 94.343 48.3946 94.087 48.1607 93.9112L40.5444 88.1888C40.2501 87.9675 40.0766 87.6206 40.0766 87.2517C40.0766 86.8828 40.2501 86.5364 40.5444 86.3147L48.1607 80.5922C48.3946 80.4164 48.5455 80.1609 48.5868 79.8722C48.6276 79.5839 48.554 79.2966 48.3782 79.0631C48.2033 78.8302 47.9479 78.6797 47.6582 78.6384C47.6057 78.6319 47.5532 78.6277 47.5011 78.6277Z" fill="black"/>
<path d="M51.6323 100.814C51.2521 100.814 50.8664 100.751 50.489 100.617C48.7031 99.9846 47.7646 98.0173 48.397 96.2314L55.5698 75.979C55.8778 75.1085 56.5068 74.4125 57.3407 74.0192C58.1662 73.6296 59.0948 73.5823 59.9549 73.8874H59.9554C61.7409 74.5203 62.6793 76.4876 62.047 78.2731L54.8742 98.5254C54.3759 99.9331 53.0474 100.814 51.6323 100.814ZM58.8079 76.0334C58.6481 76.0334 58.4887 76.0685 58.3401 76.1389C58.0762 76.2631 57.877 76.4843 57.779 76.7609L50.6062 97.0132C50.4051 97.5809 50.7032 98.2067 51.2704 98.4078C51.8395 98.6089 52.4643 98.3107 52.6654 97.7436L59.8382 77.4917C60.0393 76.924 59.7407 76.2982 59.1731 76.0971C59.0535 76.0545 58.9307 76.0334 58.8079 76.0334Z" fill="black"/>
</g>
<defs>
<filter id="filter0_d" x="-6" y="0.0292969" width="132" height="132" filterUnits="userSpaceOnUse" color-interpolation-filters="sRGB">
<feFlood flood-opacity="0" result="BackgroundImageFix"/>
<feColorMatrix in="SourceAlpha" type="matrix" values="0 0 0 0 0 0 0 0 0 0 0 0 0 0 0 0 0 0 127 0"/>
<feOffset dy="5"/>
<feGaussianBlur stdDeviation="3"/>
<feColorMatrix type="matrix" values="0 0 0 0 0 0 0 0 0 0 0 0 0 0 0 0 0 0 0.21 0"/>
<feBlend mode="normal" in2="BackgroundImageFix" result="effect1_dropShadow"/>
<feBlend mode="normal" in="SourceGraphic" in2="effect1_dropShadow" result="shape"/>
</filter>
<clipPath id="clip0">
<rect width="120" height="120" fill="white" transform="translate(0 1.0293)"/>
</clipPath>
</defs>
</svg>
