<svg width="120" height="133" viewBox="0 0 120 133" fill="none" xmlns="http://www.w3.org/2000/svg">
<g clip-path="url(#clip0)" filter="url(#filter0_d)">
<path d="M92.5949 81.1875V12.9684C92.5949 9.78703 89.9919 7.18359 86.8101 7.18359H39.763L16.1371 30.8091V81.1875H92.5949Z" fill="#EDF4FC"/>
<path d="M16.1371 81.1875V105.344C16.1371 108.525 18.7401 111.129 21.9219 111.129H86.8101C89.9915 111.129 92.5949 108.526 92.5949 105.344V81.1875H16.1371Z" fill="#FC657E"/>
<path d="M52.2434 88.6213H50.3333C50.2039 88.6213 50.0989 88.7263 50.0989 88.8557V99.8549C50.0989 101.066 49.4942 101.825 48.2136 101.825C46.7234 101.825 46.1384 100.79 46.1384 99.2882C46.1384 99.1588 46.0334 99.0538 45.9041 99.0538H43.9944C43.865 99.0538 43.76 99.1588 43.76 99.2882C43.76 102.331 45.5314 104.036 48.2975 104.036C50.9717 104.036 52.4783 102.372 52.4783 99.8549V88.8557C52.4778 88.7263 52.3728 88.6213 52.2434 88.6213Z" fill="black"/>
<path d="M57.3866 93.7316C56.6493 92.8583 56.7069 90.4335 59.2958 90.4335C60.8455 90.4335 61.7558 91.386 61.9621 92.4678C61.9832 92.5785 62.0797 92.6582 62.1922 92.6582H64.2496C64.3902 92.6582 64.4999 92.5349 64.4821 92.3943C64.1989 90.1907 62.4322 88.4324 59.2958 88.4324C57.6191 88.4324 55.9513 88.9714 55.0569 90.3889C54.1799 91.7788 54.335 93.7921 55.108 94.8505C57.1578 97.655 62.2944 96.6772 62.2944 99.876C62.2944 101.092 61.5369 102.035 59.9258 102.035C58.1985 102.035 57.1578 100.903 57.0313 99.6425C57.0191 99.5225 56.9183 99.4316 56.7978 99.4316H54.7616C54.6247 99.4316 54.516 99.5488 54.5282 99.6866C54.7649 102.384 57.1189 104.036 59.9882 104.036C63.1171 104.036 64.7989 102.088 64.7989 99.8132C64.7994 94.9227 59.1355 95.8068 57.3866 93.7316Z" fill="black"/>
<path d="M86.81 112.301H21.9218C18.086 112.301 14.9656 109.18 14.9656 105.344V81.1875C14.9656 80.5402 15.4901 80.0156 16.1375 80.0156C16.7848 80.0156 17.3093 80.5402 17.3093 81.1875V105.344C17.3093 107.887 19.3789 109.957 21.9218 109.957H86.81C89.3534 109.957 91.4229 107.887 91.4229 105.344V81.1875C91.4229 80.5402 91.9474 80.0156 92.5948 80.0156C93.2421 80.0156 93.7667 80.5402 93.7667 81.1875V105.344C93.7667 109.18 90.6457 112.301 86.81 112.301Z" fill="black"/>
<path d="M16.1371 30.8091H33.9782C37.1596 30.8091 39.763 28.2061 39.763 25.0242V7.18359L16.1371 30.8091Z" fill="#FC657E"/>
<path d="M104.961 63.1645C103.017 63.5269 101.484 65.0283 101.114 66.9337C101.095 67.0294 100.962 67.0294 100.943 66.9337C100.573 65.0283 99.0407 63.5269 97.0958 63.1645C96.9983 63.1462 96.9983 63.0155 97.0958 62.9972C99.0407 62.6348 100.573 61.1334 100.943 59.228C100.962 59.1323 101.096 59.1323 101.114 59.228C101.484 61.1334 103.017 62.6348 104.961 62.9972C105.059 63.0155 105.059 63.1462 104.961 63.1645Z" fill="#F5C84C"/>
<path d="M55.9743 118.806C54.6102 119.06 53.5349 120.113 53.2757 121.45C53.2626 121.517 53.1688 121.517 53.1562 121.45C52.897 120.113 51.8216 119.06 50.4576 118.806C50.3891 118.793 50.3891 118.702 50.4576 118.689C51.8216 118.435 52.897 117.382 53.1562 116.045C53.1693 115.978 53.2631 115.978 53.2757 116.045C53.5349 117.382 54.6102 118.435 55.9743 118.689C56.0432 118.702 56.0432 118.793 55.9743 118.806Z" fill="#FC657E"/>
<path d="M34.6786 4.66594C35.5528 4.66594 36.2615 3.95722 36.2615 3.08297C36.2615 2.20872 35.5528 1.5 34.6786 1.5C33.8043 1.5 33.0956 2.20872 33.0956 3.08297C33.0956 3.95722 33.8043 4.66594 34.6786 4.66594Z" fill="#FC657E"/>
<path d="M98.8973 51.0722C99.7716 51.0722 100.48 50.3635 100.48 49.4892C100.48 48.615 99.7716 47.9062 98.8973 47.9062C98.0231 47.9062 97.3143 48.615 97.3143 49.4892C97.3143 50.3635 98.0231 51.0722 98.8973 51.0722Z" fill="#87D147"/>
<path d="M25.5252 6.54289H24.6702V5.68742C24.6702 5.0471 24.1513 4.5282 23.511 4.5282C22.8707 4.5282 22.3517 5.0471 22.3517 5.68742V6.54242H21.4967C20.8564 6.54242 20.3375 7.06132 20.3375 7.70163C20.3375 8.34195 20.8564 8.86085 21.4967 8.86085H22.3517V9.71585C22.3517 10.3562 22.8707 10.8751 23.511 10.8751C24.1513 10.8751 24.6702 10.3562 24.6702 9.71585V8.86085H25.5252C26.1655 8.86085 26.6844 8.34195 26.6844 7.70163C26.6844 7.06132 26.165 6.54289 25.5252 6.54289Z" fill="#70D6F9"/>
<path d="M40.9522 118.221C41.8265 118.221 42.5352 117.512 42.5352 116.638C42.5352 115.763 41.8265 115.055 40.9522 115.055C40.078 115.055 39.3693 115.763 39.3693 116.638C39.3693 117.512 40.078 118.221 40.9522 118.221Z" fill="#F5C84C"/>
<path d="M92.5949 82.3594H16.1371C15.4897 82.3594 14.9652 81.8348 14.9652 81.1875V30.8091C14.9652 30.4983 15.0885 30.2002 15.3083 29.9803L38.9343 6.35484C39.1541 6.135 39.4518 6.01172 39.763 6.01172H86.8101C90.6458 6.01172 93.7668 9.13266 93.7668 12.9684V81.1875C93.7668 81.8348 93.2422 82.3594 92.5949 82.3594ZM17.309 80.0156H91.4226V12.9684C91.4226 10.425 89.353 8.35547 86.8096 8.35547H40.2482L17.309 31.2947V80.0156Z" fill="black"/>
<path d="M33.9782 31.9809H16.4792C15.8319 31.9809 15.3074 31.4564 15.3074 30.8091C15.3074 30.1617 15.8319 29.6372 16.4792 29.6372H33.9782C36.5216 29.6372 38.5911 27.5677 38.5911 25.0242V7.65234C38.5911 7.005 39.1157 6.48047 39.763 6.48047C40.4103 6.48047 40.9349 7.005 40.9349 7.65234V25.0247C40.9349 28.8605 37.8139 31.9809 33.9782 31.9809Z" fill="black"/>
<path d="M73.7671 51.2251L63.7415 43.6923C62.7454 42.9437 61.3255 43.1382 60.5713 44.1423C59.8213 45.1402 60.0234 46.5624 61.0213 47.3124L68.638 53.0349L61.0213 58.7574C60.0234 59.5079 59.8213 60.9301 60.5713 61.9276C61.3251 62.9303 62.7482 63.1243 63.7415 62.3776L73.7676 54.8443C74.9723 53.9401 74.9737 52.1321 73.7671 51.2251Z" fill="#FC657E"/>
<path d="M48.1269 58.7578L40.5107 53.0353L48.1269 47.3128C49.1273 46.5609 49.3293 45.143 48.5769 44.1426C47.8274 43.1447 46.4048 42.9426 45.4068 43.6922L35.3812 51.2255C34.8069 51.6572 34.4774 52.3172 34.4774 53.0358C34.4774 53.7544 34.8069 54.4139 35.3812 54.8456L45.4068 62.3784C46.4066 63.1298 47.8255 62.9288 48.5769 61.9284C49.3279 60.9295 49.1296 59.5116 48.1269 58.7578Z" fill="#FC657E"/>
<path d="M58.8266 40.7752C57.6608 40.3627 56.3586 40.9608 55.9363 42.1533L48.7634 62.4052C48.3458 63.5846 48.9617 64.8774 50.1416 65.2955C51.3275 65.7155 52.6161 65.0911 53.0314 63.9174L60.2042 43.6655C60.6233 42.4833 60.0036 41.1924 58.8266 40.7752Z" fill="#FC657E"/>
<path d="M62.3863 64.0031C61.3419 64.0031 60.3097 63.5301 59.6347 62.6329C58.4966 61.1189 58.8027 58.9603 60.3167 57.8217L66.6866 53.0358L60.3172 48.2498C59.5845 47.699 59.1092 46.8947 58.9803 45.9853C58.8514 45.0759 59.0835 44.1712 59.6347 43.4386C60.1874 42.7036 60.9927 42.2278 61.903 42.1003C62.8095 41.9742 63.7133 42.2062 64.4455 42.7561L74.4711 50.2889C75.343 50.9442 75.8431 51.9459 75.8431 53.0358C75.8431 54.1256 75.343 55.1268 74.4711 55.7822L64.445 63.3154C63.8286 63.779 63.1044 64.0031 62.3863 64.0031ZM62.383 44.4098C62.3319 44.4098 62.2803 44.4136 62.2288 44.4206C61.94 44.4614 61.6836 44.6123 61.5078 44.8467C61.333 45.0792 61.2594 45.3665 61.3006 45.6558C61.3419 45.9454 61.4924 46.2014 61.7249 46.3762L69.3416 52.0987C69.636 52.32 69.8094 52.6669 69.8094 53.0358C69.8094 53.4047 69.636 53.7511 69.3416 53.9728L61.7249 59.6953C61.2434 60.0572 61.146 60.7434 61.5078 61.2248C61.8697 61.7062 62.556 61.8032 63.0369 61.4423L73.063 53.909C73.34 53.7009 73.4994 53.3822 73.4994 53.0358C73.4994 52.6894 73.3405 52.3711 73.0625 52.162L63.0374 44.6292C62.8461 44.4853 62.6183 44.4098 62.383 44.4098Z" fill="black"/>
<path d="M46.7601 64.0049C46.0209 64.0049 45.3046 63.7672 44.7027 63.3149L34.6771 55.7821C33.8057 55.1272 33.306 54.126 33.3055 53.0361C33.3055 51.9449 33.8052 50.9436 34.6766 50.2883L44.7023 42.7555C45.4349 42.2047 46.3396 41.9722 47.2495 42.1016C48.1588 42.2305 48.9632 42.7058 49.514 43.4385C50.0657 44.1721 50.2982 45.0772 50.1693 45.9857C50.0399 46.8941 49.5646 47.6975 48.831 48.2493L42.4616 53.0352L48.831 57.8211C49.566 58.3733 50.0418 59.1782 50.1698 60.0871C50.2977 60.995 50.0648 61.8988 49.514 62.6324C48.9627 63.366 48.1588 63.8413 47.2499 63.9702C47.0863 63.9936 46.9227 64.0049 46.7601 64.0049ZM46.7634 44.4107C46.5285 44.4107 46.3012 44.4861 46.1109 44.6286L36.0852 52.1614C35.8044 52.3724 35.6498 52.6827 35.6498 53.0352C35.6498 53.3868 35.8049 53.6971 36.0857 53.908L46.1113 61.4408C46.3448 61.6166 46.6302 61.6911 46.9213 61.6489C47.2101 61.6082 47.4655 61.4568 47.6409 61.2238C47.8166 60.9899 47.8907 60.703 47.8499 60.4143C47.8091 60.1255 47.6577 59.87 47.4238 59.6938L39.8066 53.9718C39.5123 53.7505 39.3388 53.4036 39.3388 53.0347C39.3388 52.6658 39.5123 52.3194 39.8066 52.0977L47.4229 46.3752C47.6568 46.1994 47.8077 45.9439 47.849 45.6552C47.8902 45.3669 47.8162 45.0791 47.6404 44.8461C47.4655 44.6132 47.2101 44.4627 46.9204 44.4214C46.8679 44.4149 46.8159 44.4107 46.7634 44.4107Z" fill="black"/>
<path d="M50.8948 66.5976C50.5151 66.5976 50.1293 66.5344 49.7515 66.4008C47.9656 65.7684 47.0267 63.8006 47.659 62.0147L54.8318 41.7623C55.4642 39.9764 57.432 39.038 59.2174 39.6708C61.0029 40.3036 61.9409 42.2709 61.309 44.0564L54.1362 64.3087C53.6384 65.7164 52.3099 66.5976 50.8948 66.5976ZM58.0713 41.8172C57.6213 41.8172 57.199 42.0975 57.0406 42.5447L49.8678 62.7966C49.6667 63.3642 49.9653 63.99 50.5324 64.1911C51.1001 64.3926 51.7264 64.0941 51.927 63.5269L59.0998 43.275C59.3004 42.7073 59.0023 42.082 58.4351 41.8805C58.3151 41.8373 58.1923 41.8172 58.0713 41.8172Z" fill="black"/>
</g>
<defs>
<filter id="filter0_d" x="-6" y="0.5" width="132" height="132" filterUnits="userSpaceOnUse" color-interpolation-filters="sRGB">
<feFlood flood-opacity="0" result="BackgroundImageFix"/>
<feColorMatrix in="SourceAlpha" type="matrix" values="0 0 0 0 0 0 0 0 0 0 0 0 0 0 0 0 0 0 127 0"/>
<feOffset dy="5"/>
<feGaussianBlur stdDeviation="3"/>
<feColorMatrix type="matrix" values="0 0 0 0 0 0 0 0 0 0 0 0 0 0 0 0 0 0 0.21 0"/>
<feBlend mode="normal" in2="BackgroundImageFix" result="effect1_dropShadow"/>
<feBlend mode="normal" in="SourceGraphic" in2="effect1_dropShadow" result="shape"/>
</filter>
<clipPath id="clip0">
<rect width="120" height="120" fill="white" transform="translate(0 1.5)"/>
</clipPath>
</defs>
</svg>
