<svg width="182" height="174" viewBox="0 0 182 174" fill="none" xmlns="http://www.w3.org/2000/svg">
<g clip-path="url(#clip0)" filter="url(#filter0_d)">
<path d="M78.1803 155.01V153.844H55.6168C53.5847 153.844 51.9372 155.492 51.9372 157.524C51.9372 159.556 53.5847 161.203 55.6168 161.203H84.3727C80.9674 161.202 78.1803 158.416 78.1803 155.01Z" fill="#EDF4FC"/>
<path d="M67.6801 136.981H78.1803V153.844H67.6801V136.981Z" fill="#C7D7E5"/>
<path d="M127.388 154.08V90.6982C127.388 86.7802 130.593 83.5754 134.511 83.5754H157.449V59.8066C157.449 56.4007 154.662 53.6143 151.257 53.6143H84.3734C80.9674 53.6143 78.181 56.4007 78.181 59.8066V155.01C78.181 158.416 80.9674 161.202 84.3734 161.202H134.511C130.593 161.202 127.388 157.998 127.388 154.08Z" fill="#5290DB"/>
<path d="M78.1803 59.8068C78.1803 56.4008 80.9667 53.6144 84.3727 53.6144H151.256C154.662 53.6144 157.449 56.4008 157.449 59.8061V30.9274C157.449 26.607 153.913 23.0715 149.593 23.0715H15.516C11.1956 23.0715 7.66016 26.6063 7.66016 30.9274V129.125C7.66016 133.446 11.195 136.981 15.516 136.981H78.1803V59.8068Z" fill="#5290DB"/>
<path d="M167.217 83.5757H134.511C130.593 83.5757 127.388 86.7804 127.388 90.6984V154.08C127.388 157.997 130.593 161.203 134.511 161.203H167.217C171.134 161.203 174.34 157.997 174.34 154.08V90.6984C174.34 86.7811 171.134 83.5757 167.217 83.5757Z" fill="#5290DB"/>
<path d="M165.991 89.8357H158.663C157.651 89.8357 156.725 90.438 156.352 91.3783C155.484 93.5604 153.355 95.103 150.863 95.103C148.372 95.103 146.242 93.5598 145.375 91.3783C145.001 90.438 144.075 89.8357 143.064 89.8357H135.736C134.582 89.8357 133.647 90.7707 133.647 91.9242V152.853C133.647 154.007 134.582 154.942 135.736 154.942H165.99C167.143 154.942 168.078 154.007 168.078 152.853V91.9242C168.08 90.7707 167.145 89.8357 165.991 89.8357Z" fill="#EDF4FC"/>
<path d="M127.388 154.08V90.6984C127.388 86.7805 130.593 83.5757 134.511 83.5757H150.69V60.985C150.69 60.6476 150.416 60.374 150.078 60.374H85.5514C85.2141 60.374 84.9398 60.6476 84.9398 60.985V153.832C84.9398 154.17 85.2134 154.443 85.5514 154.443H127.407C127.401 154.322 127.388 154.203 127.388 154.08Z" fill="#EDF4FC"/>
<path d="M78.1803 116.032H7.66016V129.125C7.66016 133.446 11.195 136.981 15.516 136.981H78.1803V116.032Z" fill="#EDF4FC"/>
<path d="M78.1803 59.8067C78.1803 56.4007 80.9667 53.6143 84.3727 53.6143H150.902V30.9273C150.902 30.2074 150.313 29.6184 149.593 29.6184H15.516C14.7962 29.6184 14.2065 30.2074 14.2065 30.9273V116.032H78.1803V59.8067Z" fill="#EDF4FC"/>
<path d="M149.594 29.6177H15.516C14.7962 29.6177 14.2065 30.2067 14.2065 30.9272V37.5194H150.903V30.9272C150.903 30.2074 150.313 29.6177 149.594 29.6177Z" fill="#5290DB"/>
<path d="M24.9258 29.6177H15.516C14.7962 29.6177 14.2065 30.2067 14.2065 30.9272V37.5194H24.9258V29.6177Z" fill="#FC657E"/>
<path d="M45.6684 108.574H24.7691C23.3885 108.574 22.2695 107.455 22.2695 106.075V79.1995C22.2695 77.8189 23.3885 76.7 24.7691 76.7H45.6678C47.0484 76.7 48.1673 77.8189 48.1673 79.1995V106.075C48.168 107.455 47.049 108.574 45.6684 108.574Z" fill="#70D6F9"/>
<path d="M78.1803 108.574V76.6992H57.9722C56.5916 76.6992 55.4727 77.8182 55.4727 79.1988V106.074C55.4727 107.455 56.5916 108.574 57.9722 108.574H78.1803V108.574Z" fill="#F5C84C"/>
<path d="M160.56 124.625H141.169C140.105 124.625 139.244 125.486 139.244 126.55V131.347C139.244 132.41 140.105 133.272 141.169 133.272H160.56C161.623 133.272 162.485 132.41 162.485 131.347V126.55C162.485 125.487 161.623 124.625 160.56 124.625Z" fill="#F5C84C"/>
<path d="M160.56 139.657H141.169C140.105 139.657 139.244 140.519 139.244 141.582V146.379C139.244 147.442 140.105 148.304 141.169 148.304H160.56C161.623 148.304 162.485 147.442 162.485 146.379V141.582C162.485 140.519 161.623 139.657 160.56 139.657Z" fill="#FC657E"/>
<path d="M160.56 109.593H141.169C140.105 109.593 139.244 110.455 139.244 111.518V116.315C139.244 117.378 140.105 118.24 141.169 118.24H160.56C161.623 118.24 162.485 117.378 162.485 116.315V111.518C162.485 110.455 161.623 109.593 160.56 109.593Z" fill="#70D6F9"/>
<path d="M95.2288 85.8665C93.8269 85.8665 92.6901 87.0027 92.6901 88.4052V98.2565C92.6901 99.6584 93.8263 100.795 95.2288 100.795H127.388V90.6988C127.388 88.8362 128.118 87.1395 129.3 85.8671H95.2288V85.8665Z" fill="#70D6F9"/>
<path d="M95.2288 108.777C93.8269 108.777 92.6901 109.913 92.6901 111.315V121.167C92.6901 122.569 93.8263 123.705 95.2288 123.705H127.388V108.777H95.2288V108.777Z" fill="#F5C84C"/>
<path d="M95.2288 131.687C93.8269 131.687 92.6901 132.823 92.6901 134.225V144.077C92.6901 145.479 93.8263 146.616 95.2288 146.616H127.388V131.687H95.2288V131.687Z" fill="#FC657E"/>
<path d="M175.909 52.0878C173.491 51.6375 171.585 49.7709 171.126 47.4021C171.103 47.2833 170.936 47.2833 170.913 47.4021C170.454 49.7709 168.548 51.6375 166.13 52.0878C166.008 52.1103 166.008 52.273 166.13 52.2956C168.548 52.7458 170.454 54.6125 170.913 56.9812C170.936 57.1001 171.103 57.1001 171.126 56.9812C171.585 54.6125 173.491 52.7458 175.909 52.2956C176.03 52.273 176.03 52.1103 175.909 52.0878Z" fill="#F5C84C"/>
<path d="M99.0557 11.4378C96.8782 11.032 95.1617 9.35061 94.7473 7.21764C94.7267 7.11072 94.5766 7.11072 94.556 7.21764C94.1423 9.35127 92.4257 11.0327 90.2476 11.4378C90.138 11.4583 90.138 11.6044 90.2476 11.625C92.425 12.0308 94.1416 13.7122 94.556 15.8458C94.5766 15.9527 94.7267 15.9527 94.7473 15.8458C95.161 13.7122 96.8776 12.0308 99.0557 11.625C99.1653 11.6044 99.1653 11.4583 99.0557 11.4378Z" fill="#FC657E"/>
<path d="M36.1763 148.242H37.7236V146.695C37.7236 145.537 38.6619 144.598 39.8201 144.598C40.9782 144.598 41.9165 145.537 41.9165 146.695V148.242H43.4631C44.6212 148.242 45.5595 149.18 45.5595 150.339C45.5595 151.497 44.6212 152.435 43.4631 152.435H41.9165V153.982C41.9165 155.14 40.9782 156.079 39.8201 156.079C38.6619 156.079 37.7236 155.14 37.7236 153.982V152.435H36.1763C35.0182 152.435 34.0799 151.497 34.0799 150.339C34.0799 149.18 35.0182 148.242 36.1763 148.242Z" fill="#70D6F9"/>
<path d="M166.518 66.9023C167.756 66.9023 168.76 65.8983 168.76 64.6598C168.76 63.4213 167.756 62.4172 166.518 62.4172C165.279 62.4172 164.275 63.4213 164.275 64.6598C164.275 65.8983 165.279 66.9023 166.518 66.9023Z" fill="#87D147"/>
<path d="M78.1975 16.4336C79.4361 16.4336 80.4401 15.4295 80.4401 14.191C80.4401 12.9525 79.4361 11.9485 78.1975 11.9485C76.959 11.9485 75.955 12.9525 75.955 14.191C75.955 15.4295 76.959 16.4336 78.1975 16.4336Z" fill="#70D6F9"/>
<path d="M22.4163 147.918C23.6548 147.918 24.6588 146.914 24.6588 145.675C24.6588 144.437 23.6548 143.433 22.4163 143.433C21.1778 143.433 20.1738 144.437 20.1738 145.675C20.1738 146.914 21.1778 147.918 22.4163 147.918Z" fill="#F5C84C"/>
<path d="M84.3733 162.863H55.6174C52.673 162.863 50.2777 160.467 50.2777 157.523C50.2777 154.578 52.673 152.184 55.6174 152.184H77.7393C78.6564 152.184 79.3995 152.927 79.3995 153.844C79.3995 154.761 78.6564 155.504 77.7393 155.504H55.6174C54.5038 155.504 53.598 156.409 53.598 157.523C53.598 158.637 54.5038 159.542 55.6174 159.542H84.3733C85.2904 159.542 86.0335 160.285 86.0335 161.202C86.0335 162.12 85.2897 162.863 84.3733 162.863Z" fill="black"/>
<path d="M67.6801 154.996C66.763 154.996 66.02 154.253 66.02 153.336V137.489C66.02 136.572 66.763 135.829 67.6801 135.829C68.5972 135.829 69.3403 136.572 69.3403 137.489V153.336C69.3403 154.253 68.5972 154.996 67.6801 154.996Z" fill="black"/>
<path d="M134.51 162.862H84.3726C80.0423 162.862 76.5201 159.34 76.5201 155.01V59.8066C76.5201 55.4763 80.0429 51.9541 84.3726 51.9541H151.256C155.587 51.9541 159.109 55.477 159.109 59.8066V83.1458C159.109 84.0629 158.366 84.8059 157.449 84.8059C156.532 84.8059 155.789 84.0629 155.789 83.1458V59.8066C155.789 57.3071 153.755 55.2744 151.256 55.2744H84.3733C81.8738 55.2744 79.8411 57.3078 79.8411 59.8066V155.01C79.8411 157.509 81.8744 159.542 84.3733 159.542H134.511C135.428 159.542 136.171 160.285 136.171 161.202C136.171 162.119 135.427 162.862 134.51 162.862Z" fill="black"/>
<path d="M77.8018 138.641H15.516C10.2693 138.641 6 134.372 6 129.125V30.9267C6 25.68 10.2693 21.4114 15.516 21.4114H149.594C154.84 21.4114 159.109 25.68 159.109 30.9267V59.8055C159.109 60.7225 158.366 61.4656 157.449 61.4656C156.532 61.4656 155.789 60.7225 155.789 59.8055V30.9267C155.789 27.5101 153.01 24.7317 149.594 24.7317H15.516C12.0994 24.7317 9.32031 27.5108 9.32031 30.9267V129.125C9.32031 132.542 12.1001 135.321 15.516 135.321H77.8018C78.7188 135.321 79.4619 136.064 79.4619 136.981C79.4619 137.898 78.7188 138.641 77.8018 138.641Z" fill="black"/>
<path d="M167.217 162.863H134.51C129.667 162.863 125.727 158.923 125.727 154.08V90.6984C125.727 85.8554 129.667 81.9155 134.51 81.9155H167.217C172.06 81.9155 176 85.8554 176 90.6984V154.08C176 158.923 172.06 162.863 167.217 162.863ZM134.51 85.2358C131.499 85.2358 129.047 87.6862 129.047 90.6984V154.08C129.047 157.091 131.498 159.542 134.51 159.542H167.217C170.229 159.542 172.68 157.092 172.68 154.08V90.6984C172.68 87.6869 170.229 85.2358 167.217 85.2358H134.51Z" fill="black"/>
<path d="M30.2383 47.1484H26.2539C25.3368 47.1484 24.5938 46.4054 24.5938 45.4883C24.5938 44.5712 25.3368 43.8281 26.2539 43.8281H30.2383C31.1554 43.8281 31.8984 44.5712 31.8984 45.4883C31.8984 46.4054 31.1554 47.1484 30.2383 47.1484Z" fill="black"/>
<path d="M41.8594 47.1484H37.875C36.9579 47.1484 36.2148 46.4054 36.2148 45.4883C36.2148 44.5712 36.9579 43.8281 37.875 43.8281H41.8594C42.7764 43.8281 43.5195 44.5712 43.5195 45.4883C43.5195 46.4054 42.7764 47.1484 41.8594 47.1484Z" fill="black"/>
<path d="M53.4805 47.1484H49.4961C48.579 47.1484 47.8359 46.4054 47.8359 45.4883C47.8359 44.5712 48.579 43.8281 49.4961 43.8281H53.4805C54.3975 43.8281 55.1406 44.5712 55.1406 45.4883C55.1406 46.4054 54.3975 47.1484 53.4805 47.1484Z" fill="black"/>
<path d="M97.3086 69.7266H93.3242C92.4071 69.7266 91.6641 68.9835 91.6641 68.0664C91.6641 67.1493 92.4071 66.4062 93.3242 66.4062H97.3086C98.2257 66.4062 98.9688 67.1493 98.9688 68.0664C98.9688 68.9835 98.2257 69.7266 97.3086 69.7266Z" fill="black"/>
<path d="M108.93 69.7266H104.945C104.028 69.7266 103.285 68.9835 103.285 68.0664C103.285 67.1493 104.028 66.4062 104.945 66.4062H108.93C109.847 66.4062 110.59 67.1493 110.59 68.0664C110.59 68.9835 109.847 69.7266 108.93 69.7266Z" fill="black"/>
<path d="M120.551 69.7266H116.566C115.649 69.7266 114.906 68.9835 114.906 68.0664C114.906 67.1493 115.649 66.4062 116.566 66.4062H120.551C121.468 66.4062 122.211 67.1493 122.211 68.0664C122.211 68.9835 121.468 69.7266 120.551 69.7266Z" fill="black"/>
<path d="M161.059 102.266H157.074C156.157 102.266 155.414 101.523 155.414 100.605C155.414 99.6884 156.157 98.9453 157.074 98.9453H161.059C161.976 98.9453 162.719 99.6884 162.719 100.605C162.719 101.523 161.976 102.266 161.059 102.266Z" fill="black"/>
<path d="M165.991 156.603H135.737C133.67 156.603 131.988 154.921 131.988 152.853V91.9243C131.988 89.8571 133.669 88.175 135.737 88.175H143.064C144.78 88.175 146.293 89.1911 146.919 90.7636C147.566 92.3905 149.114 93.4417 150.864 93.4417C152.614 93.4417 154.163 92.3905 154.809 90.7636C155.434 89.1911 156.947 88.175 158.663 88.175H165.991C168.057 88.175 169.739 89.8565 169.739 91.9243V152.853C169.739 154.921 168.058 156.603 165.991 156.603ZM135.737 91.496C135.501 91.496 135.308 91.6886 135.308 91.925V152.854C135.308 153.09 135.5 153.283 135.737 153.283H165.991C166.227 153.283 166.42 153.09 166.42 152.854V91.925C166.42 91.6893 166.228 91.496 165.991 91.496H158.663C158.321 91.496 158.013 91.6952 157.896 91.9914C156.744 94.89 153.983 96.7634 150.865 96.7634C147.745 96.7634 144.985 94.8907 143.833 91.9907C143.715 91.6952 143.406 91.496 143.065 91.496H135.737Z" fill="black"/>
<path d="M127.15 156.103H85.5514C84.2983 156.103 83.2797 155.085 83.2797 153.832V60.9849C83.2797 59.7318 84.2983 58.7131 85.5514 58.7131H150.079C151.331 58.7131 152.35 59.7318 152.35 60.9849V83.2569C152.35 84.174 151.607 84.917 150.69 84.917C149.773 84.917 149.03 84.174 149.03 83.2569V62.0334H86.6V152.783H127.15C128.067 152.783 128.81 153.526 128.81 154.443C128.81 155.36 128.067 156.103 127.15 156.103Z" fill="black"/>
<path d="M77.9266 117.692H8.11633C7.19926 117.692 6.45618 116.949 6.45618 116.032C6.45618 115.115 7.19926 114.372 8.11633 114.372H77.9266C78.8436 114.372 79.5867 115.115 79.5867 116.032C79.5867 116.949 78.8436 117.692 77.9266 117.692Z" fill="black"/>
<path d="M14.2065 117.373C13.2894 117.373 12.5463 116.63 12.5463 115.713V30.9265C12.5463 29.2896 13.8784 27.9575 15.516 27.9575H149.594C151.231 27.9575 152.563 29.2896 152.563 30.9265V53.2078C152.563 54.1249 151.82 54.868 150.903 54.868C149.986 54.868 149.243 54.1249 149.243 53.2078V31.2785H15.8666V115.713C15.8666 116.63 15.1236 117.373 14.2065 117.373Z" fill="black"/>
<path d="M150.454 39.1797H14.6607C13.7436 39.1797 13.0005 38.4366 13.0005 37.5195C13.0005 36.6025 13.7436 35.8594 14.6607 35.8594H150.454C151.371 35.8594 152.114 36.6025 152.114 37.5195C152.114 38.4366 151.371 39.1797 150.454 39.1797Z" fill="black"/>
<path d="M24.9258 38.6818C24.0087 38.6818 23.2656 37.9387 23.2656 37.0217V29.9866C23.2656 29.0695 24.0087 28.3264 24.9258 28.3264C25.8429 28.3264 26.5859 29.0695 26.5859 29.9866V37.0217C26.5859 37.9387 25.8429 38.6818 24.9258 38.6818Z" fill="black"/>
<path d="M45.6678 110.234H24.7697C22.4761 110.234 20.6094 108.368 20.6094 106.074V79.1987C20.6094 76.905 22.4761 75.0383 24.7697 75.0383H45.6684C47.9621 75.0383 49.8288 76.905 49.8288 79.1987V106.074C49.8281 108.368 47.9614 110.234 45.6678 110.234ZM24.7697 78.3593C24.3069 78.3593 23.9297 78.7358 23.9297 79.1993V106.075C23.9297 106.537 24.3062 106.915 24.7697 106.915H45.6684C46.1313 106.915 46.5085 106.538 46.5085 106.075V79.1993C46.5085 78.7365 46.132 78.3593 45.6684 78.3593H24.7697Z" fill="black"/>
<path d="M77.6636 110.234H57.9729C55.6792 110.234 53.8125 108.368 53.8125 106.074V79.1987C53.8125 76.905 55.6792 75.0383 57.9729 75.0383H77.74C78.6571 75.0383 79.4002 75.7814 79.4002 76.6985C79.4002 77.6156 78.6571 78.3586 77.74 78.3586H57.9729C57.51 78.3586 57.1328 78.7352 57.1328 79.1987V106.074C57.1328 106.537 57.5093 106.914 57.9729 106.914H77.6636C78.5807 106.914 79.3238 107.657 79.3238 108.574C79.3238 109.491 78.5807 110.234 77.6636 110.234Z" fill="black"/>
<path d="M160.56 134.933H141.169C139.191 134.933 137.583 133.324 137.583 131.348V126.55C137.583 124.573 139.192 122.964 141.169 122.964H160.56C162.538 122.964 164.145 124.573 164.145 126.55V131.348C164.145 133.324 162.538 134.933 160.56 134.933ZM141.169 126.285C141.022 126.285 140.904 126.404 140.904 126.55V131.348C140.904 131.494 141.023 131.612 141.169 131.612H160.56C160.707 131.612 160.825 131.494 160.825 131.348V126.55C160.825 126.404 160.706 126.285 160.56 126.285H141.169Z" fill="black"/>
<path d="M160.56 149.965H141.169C139.191 149.965 137.583 148.356 137.583 146.379V141.582C137.583 139.605 139.192 137.997 141.169 137.997H160.56C162.538 137.997 164.145 139.605 164.145 141.582V146.379C164.145 148.356 162.538 149.965 160.56 149.965ZM141.169 141.317C141.022 141.317 140.904 141.436 140.904 141.582V146.379C140.904 146.526 141.023 146.645 141.169 146.645H160.56C160.707 146.645 160.825 146.525 160.825 146.379V141.582C160.825 141.435 160.706 141.317 160.56 141.317H141.169Z" fill="black"/>
<path d="M160.56 119.901H141.169C139.191 119.901 137.583 118.293 137.583 116.316V111.519C137.583 109.541 139.192 107.933 141.169 107.933H160.56C162.538 107.933 164.145 109.542 164.145 111.519V116.316C164.145 118.293 162.538 119.901 160.56 119.901ZM141.169 111.253C141.022 111.253 140.904 111.372 140.904 111.518V116.315C140.904 116.462 141.023 116.58 141.169 116.58H160.56C160.707 116.58 160.825 116.461 160.825 116.315V111.518C160.825 111.371 160.706 111.253 160.56 111.253H141.169Z" fill="black"/>
<path d="M127.025 102.455H95.2288C92.9139 102.455 91.0299 100.571 91.0299 98.2565V88.4052C91.0299 86.0902 92.9139 84.2063 95.2288 84.2063H128.914C129.831 84.2063 130.574 84.9494 130.574 85.8664C130.574 86.7835 129.831 87.5266 128.914 87.5266H95.2288C94.7447 87.5266 94.3502 87.9211 94.3502 88.4052V98.2565C94.3502 98.7406 94.7447 99.1344 95.2288 99.1344H127.025C127.943 99.1344 128.686 99.8775 128.686 100.795C128.686 101.712 127.943 102.455 127.025 102.455Z" fill="black"/>
<path d="M127.025 125.365H95.2288C92.9139 125.365 91.0299 123.482 91.0299 121.167V111.315C91.0299 109 92.9139 107.116 95.2288 107.116H127.088C128.005 107.116 128.748 107.86 128.748 108.777C128.748 109.694 128.005 110.437 127.088 110.437H95.2288C94.7447 110.437 94.3502 110.831 94.3502 111.315V121.167C94.3502 121.651 94.7447 122.045 95.2288 122.045H127.025C127.942 122.045 128.686 122.788 128.686 123.705C128.686 124.622 127.942 125.365 127.025 125.365Z" fill="black"/>
<path d="M126.922 148.275H95.2288C92.9139 148.275 91.0299 146.392 91.0299 144.077V134.225C91.0299 131.911 92.9139 130.027 95.2288 130.027H126.984C127.901 130.027 128.644 130.77 128.644 131.687C128.644 132.604 127.901 133.347 126.984 133.347H95.2288C94.7447 133.347 94.3502 133.741 94.3502 134.225V144.077C94.3502 144.561 94.7447 144.955 95.2288 144.955H126.922C127.839 144.955 128.582 145.698 128.582 146.615C128.582 147.532 127.839 148.275 126.922 148.275Z" fill="black"/>
</g>
<defs>
<filter id="filter0_d" x="0" y="-1" width="182" height="182" filterUnits="userSpaceOnUse" color-interpolation-filters="sRGB">
<feFlood flood-opacity="0" result="BackgroundImageFix"/>
<feColorMatrix in="SourceAlpha" type="matrix" values="0 0 0 0 0 0 0 0 0 0 0 0 0 0 0 0 0 0 127 0"/>
<feOffset dy="5"/>
<feGaussianBlur stdDeviation="3"/>
<feColorMatrix type="matrix" values="0 0 0 0 0 0 0 0 0 0 0 0 0 0 0 0 0 0 0.21 0"/>
<feBlend mode="normal" in2="BackgroundImageFix" result="effect1_dropShadow"/>
<feBlend mode="normal" in="SourceGraphic" in2="effect1_dropShadow" result="shape"/>
</filter>
<clipPath id="clip0">
<rect width="170" height="170" fill="white" transform="translate(6)"/>
</clipPath>
</defs>
</svg>
