<svg width="62" height="62" viewBox="0 0 62 62" fill="none" xmlns="http://www.w3.org/2000/svg">
<g filter="url(#filter0_d)">
<path d="M31 51C44.8071 51 56 39.8071 56 26C56 12.1929 44.8071 1 31 1C17.1929 1 6 12.1929 6 26C6 39.8071 17.1929 51 31 51Z" fill="#4F9F42"/>
<path d="M19.2513 10.9807L19.2505 10.9811C16.3561 12.4913 15.1417 15.9833 16.4679 18.9665C18.3768 23.2609 20.9398 27.1889 24.0331 30.6289L26.3709 32.9667L41.9054 48.5011C45.794 46.6129 49.1185 43.7462 51.5612 40.2215L45.8291 34.4894C45.6082 34.1638 45.3243 33.8743 44.9813 33.6417L23.3581 12.0185C22.4505 10.6811 20.6841 10.2331 19.2513 10.9807Z" fill="#3F7D35"/>
<path d="M40.1399 30.3568C39.3399 29.814 38.289 29.8167 37.4919 30.3638L36.3442 31.1515C35.0659 32.0288 33.3659 31.9811 32.1372 31.0355C30.9792 30.1442 29.8739 29.1886 28.8243 28.1759C27.8115 27.1263 26.856 26.0211 25.9646 24.863C25.0189 23.6344 24.9714 21.9344 25.8487 20.6559L26.6364 19.5083C27.1834 18.7112 27.1862 17.6602 26.6434 16.8602L23.3582 12.0189C22.4507 10.6816 20.6843 10.2336 19.2514 10.9811L19.2505 10.9815C16.3561 12.4917 15.1417 15.9837 16.4679 18.9669C18.3768 23.2613 20.9398 27.1893 24.0331 30.6293L26.3709 32.9671C29.8109 36.0602 33.739 38.6234 38.0333 40.5323C41.0166 41.8585 44.5085 40.6441 46.0186 37.7497L46.019 37.7488C46.7666 36.316 46.3186 34.5495 44.9812 33.642L40.1399 30.3568Z" fill="white"/>
</g>
<defs>
<filter id="filter0_d" x="0" y="0" width="62" height="62" filterUnits="userSpaceOnUse" color-interpolation-filters="sRGB">
<feFlood flood-opacity="0" result="BackgroundImageFix"/>
<feColorMatrix in="SourceAlpha" type="matrix" values="0 0 0 0 0 0 0 0 0 0 0 0 0 0 0 0 0 0 127 0"/>
<feOffset dy="5"/>
<feGaussianBlur stdDeviation="3"/>
<feColorMatrix type="matrix" values="0 0 0 0 0 0 0 0 0 0 0 0 0 0 0 0 0 0 0.21 0"/>
<feBlend mode="normal" in2="BackgroundImageFix" result="effect1_dropShadow"/>
<feBlend mode="normal" in="SourceGraphic" in2="effect1_dropShadow" result="shape"/>
</filter>
</defs>
</svg>
