<svg width="62" height="62" viewBox="0 0 62 62" fill="none" xmlns="http://www.w3.org/2000/svg">
<g filter="url(#filter0_d)">
<path d="M31 51C44.8071 51 56 39.8071 56 26C56 12.1929 44.8071 1 31 1C17.1929 1 6 12.1929 6 26C6 39.8071 17.1929 51 31 51Z" fill="#47B0D3"/>
<path d="M9.3333 26C9.3333 12.7531 19.6368 1.91445 32.6666 1.05654C32.1156 1.02031 31.5603 1 31 1C17.1929 1 6 12.1929 6 26C6 39.8071 17.1929 51 31 51C31.5603 51 32.1156 50.9797 32.6667 50.9435C19.6369 50.0855 9.3333 39.2469 9.3333 26Z" fill="#3298BA"/>
<path d="M43.1351 11.6495C42.8923 11.4845 42.5808 11.4595 42.3148 11.5832L15.4509 24.0889C14.9789 24.3087 14.6807 24.7893 14.6925 25.3097C14.7039 25.82 15.0128 26.2784 15.4801 26.483L40.247 37.2698C41.0739 37.6457 42.0477 37.054 42.1008 36.1514L43.4986 12.3876C43.5157 12.0948 43.3777 11.8144 43.1351 11.6495Z" fill="#E5E5E5"/>
<path d="M22.7609 29.6542L24.4348 40.8436L43.0282 11.5889L22.7609 29.6542Z" fill="#CCCCCC"/>
<path d="M42.3151 11.5833L15.4509 24.089C14.9883 24.3043 14.6866 24.7844 14.6922 25.2945C14.6979 25.8056 15.0121 26.2783 15.48 26.4831L22.761 29.6541L43.0282 11.5889C42.8049 11.4813 42.5433 11.4771 42.3151 11.5833Z" fill="white"/>
<path d="M26.6463 31.3464L24.4348 40.8436L43.0282 11.5889L26.6463 31.3464Z" fill="#E5E5E5"/>
<path d="M43.1351 11.6496C43.1009 11.6263 43.0648 11.6064 43.0282 11.5889L26.6464 31.3464L40.2469 37.2699C41.0739 37.6458 42.0476 37.0541 42.1008 36.1515L43.4986 12.3877C43.5158 12.0949 43.3778 11.8145 43.1351 11.6496Z" fill="white"/>
</g>
<defs>
<filter id="filter0_d" x="0" y="0" width="62" height="62" filterUnits="userSpaceOnUse" color-interpolation-filters="sRGB">
<feFlood flood-opacity="0" result="BackgroundImageFix"/>
<feColorMatrix in="SourceAlpha" type="matrix" values="0 0 0 0 0 0 0 0 0 0 0 0 0 0 0 0 0 0 127 0"/>
<feOffset dy="5"/>
<feGaussianBlur stdDeviation="3"/>
<feColorMatrix type="matrix" values="0 0 0 0 0 0 0 0 0 0 0 0 0 0 0 0 0 0 0.21 0"/>
<feBlend mode="normal" in2="BackgroundImageFix" result="effect1_dropShadow"/>
<feBlend mode="normal" in="SourceGraphic" in2="effect1_dropShadow" result="shape"/>
</filter>
</defs>
</svg>
