<svg width="62" height="62" viewBox="0 0 62 62" fill="none" xmlns="http://www.w3.org/2000/svg">
<g filter="url(#filter0_d)">
<path d="M31 51C44.8071 51 56 39.8071 56 26C56 12.1929 44.8071 1 31 1C17.1929 1 6 12.1929 6 26C6 39.8071 17.1929 51 31 51Z" fill="#4D76A1"/>
<path fill-rule="evenodd" clip-rule="evenodd" d="M30.0557 36.9648H32.0179C32.0179 36.9648 32.6106 36.8997 32.9132 36.5735C33.1917 36.274 33.1828 35.7116 33.1828 35.7116C33.1828 35.7116 33.1445 33.0787 34.3665 32.691C35.571 32.3091 37.1179 35.2357 38.7574 36.3609C39.9972 37.2126 40.9393 37.0258 40.9393 37.0258L45.3232 36.9648C45.3232 36.9648 47.6165 36.8235 46.5291 35.0204C46.44 34.8729 45.8958 33.6866 43.2696 31.2489C40.5209 28.6975 40.889 29.1102 44.2001 24.697C46.2167 22.0093 47.0229 20.3684 46.7711 19.6656C46.5309 18.9962 45.0478 19.1731 45.0478 19.1731L40.1118 19.2039C40.1118 19.2039 39.7459 19.154 39.4745 19.3162C39.2093 19.4753 39.0386 19.8461 39.0386 19.8461C39.0386 19.8461 38.2574 21.9259 37.2155 23.6947C35.0175 27.427 34.1387 27.624 33.7795 27.3922C32.9439 26.8521 33.1525 25.2224 33.1525 24.0646C33.1525 20.4477 33.7011 18.9396 32.0843 18.5492C31.5477 18.4196 31.1529 18.334 29.7807 18.3202C28.0195 18.3019 26.5288 18.3255 25.6848 18.7391C25.1233 19.014 24.6901 19.6268 24.9539 19.662C25.2801 19.7057 26.019 19.8612 26.4107 20.3947C26.9165 21.0827 26.8987 22.6283 26.8987 22.6283C26.8987 22.6283 27.1893 26.886 26.22 27.415C25.5546 27.7777 24.642 27.0371 22.6824 23.651C21.6784 21.9166 20.9203 19.9994 20.9203 19.9994C20.9203 19.9994 20.7742 19.6411 20.5135 19.4494C20.1971 19.2173 19.755 19.1433 19.755 19.1433L15.0645 19.174C15.0645 19.174 14.3604 19.1936 14.1019 19.4998C13.872 19.7721 14.0836 20.3354 14.0836 20.3354C14.0836 20.3354 17.7558 28.9266 21.9137 33.2561C25.7262 37.2255 30.0557 36.9648 30.0557 36.9648Z" fill="white"/>
</g>
<defs>
<filter id="filter0_d" x="0" y="0" width="62" height="62" filterUnits="userSpaceOnUse" color-interpolation-filters="sRGB">
<feFlood flood-opacity="0" result="BackgroundImageFix"/>
<feColorMatrix in="SourceAlpha" type="matrix" values="0 0 0 0 0 0 0 0 0 0 0 0 0 0 0 0 0 0 127 0"/>
<feOffset dy="5"/>
<feGaussianBlur stdDeviation="3"/>
<feColorMatrix type="matrix" values="0 0 0 0 0 0 0 0 0 0 0 0 0 0 0 0 0 0 0.21 0"/>
<feBlend mode="normal" in2="BackgroundImageFix" result="effect1_dropShadow"/>
<feBlend mode="normal" in="SourceGraphic" in2="effect1_dropShadow" result="shape"/>
</filter>
</defs>
</svg>
