<svg width="63" height="62" viewBox="0 0 63 62" fill="none" xmlns="http://www.w3.org/2000/svg">
<g clip-path="url(#clip0)" filter="url(#filter0_d)">
<circle cx="32" cy="26" r="25" fill="white"/>
<path d="M31.6747 1H31.6594C17.8779 1 6.66663 12.2121 6.66663 25.9992C6.66663 31.4661 8.43114 36.5363 11.4271 40.6524L8.3134 49.9419L17.9215 46.8702C21.8731 49.4863 26.5908 51 31.6747 51C45.4569 51 56.6666 39.7855 56.6666 26C56.6666 12.2129 45.4569 1 31.6747 1ZM46.2199 36.3024C45.619 38.0065 43.2231 39.4177 41.3134 39.8306C40.0053 40.1089 38.3013 40.3298 32.5569 37.9484C25.2094 34.9065 20.4779 27.4403 20.111 26.954C19.7578 26.4694 17.1424 23.0008 17.1424 19.4145C17.1424 15.8282 18.9642 14.079 19.6997 13.329C20.3021 12.7121 21.3013 12.4347 22.2561 12.4347C22.5658 12.4347 22.8432 12.4492 23.094 12.4621C23.8287 12.4927 24.1957 12.5379 24.6803 13.6976C25.2828 15.1516 26.7521 18.7387 26.9287 19.1056C27.1045 19.4734 27.2819 19.9726 27.0311 20.4573C26.7957 20.9573 26.5908 21.1798 26.2239 21.6048C25.8553 22.0298 25.5021 22.3548 25.136 22.8097C24.7981 23.2065 24.415 23.6331 24.8424 24.3677C25.269 25.0895 26.7376 27.4839 28.8973 29.4081C31.6884 31.8919 33.9513 32.6863 34.7602 33.0242C35.3618 33.275 36.0828 33.2145 36.5239 32.7452C37.0819 32.1419 37.7731 31.1435 38.4779 30.1589C38.9771 29.4516 39.6094 29.3645 40.2699 29.6137C40.9465 29.8484 44.5182 31.6129 45.2529 31.9806C45.986 32.3484 46.4715 32.5242 46.6473 32.8331C46.8231 33.1435 46.8231 34.5976 46.2199 36.3024Z" fill="#7FD371"/>
<path d="M7 25.9992C7 31.4661 8.76452 36.5363 11.7605 40.6524L8.64677 49.9419L18.2548 46.8702C22.2065 49.4863 26.9242 51 32.0081 51C45.7903 51 57 39.7855 57 26C57 12.2129 45.7903 1 32.0081 1H31.9927L7 25.9992ZM46.5532 36.3024C45.9524 38.0065 43.5565 39.4177 41.6468 39.8306C40.3387 40.1089 38.6347 40.3298 32.8903 37.9484C25.5427 34.9065 20.8113 27.4403 20.4444 26.954C20.0911 26.4694 17.4758 23.0008 17.4758 19.4145C17.4758 15.8282 19.2976 14.079 20.0331 13.329C20.6355 12.7121 21.6347 12.4347 22.5895 12.4347C22.8992 12.4347 23.1766 12.4492 23.4274 12.4621C24.1621 12.4927 24.529 12.5379 25.0137 13.6976C25.6161 15.1516 27.0855 18.7387 27.2621 19.1056C27.4379 19.4734 27.6153 19.9726 27.3645 20.4573C27.129 20.9573 26.9242 21.1798 26.5573 21.6048C26.1887 22.0298 25.8355 22.3548 25.4694 22.8097C25.1315 23.2065 24.7484 23.6331 25.1758 24.3677C25.6024 25.0895 27.071 27.4839 29.2306 29.4081C32.0218 31.8919 34.2847 32.6863 35.0935 33.0242C35.6952 33.275 36.4161 33.2145 36.8573 32.7452C37.4153 32.1419 38.1065 31.1435 38.8113 30.1589C39.3105 29.4516 39.9427 29.3645 40.6032 29.6137C41.2798 29.8484 44.8516 31.6129 45.5863 31.9806C46.3194 32.3484 46.8048 32.5242 46.9806 32.8331C47.1565 33.1435 47.1565 34.5976 46.5532 36.3024Z" fill="#6DBC61"/>
<path d="M39.6674 2.31836C46.0416 7.76755 50.2021 16.0966 50.2021 23.1482C50.2021 27.0321 48.9367 30.6659 46.7392 33.7877C46.7101 34.4321 46.5674 35.3216 46.219 36.3022C45.6182 38.0062 43.2222 39.4175 41.3125 39.8304C40.9593 39.9054 40.573 39.9748 40.09 39.9901C35.9061 42.599 30.7206 44.1433 25.1037 44.1433C20.0456 44.1433 15.34 42.8877 11.398 40.7329L8.31335 49.9417L17.9214 46.8699C21.873 49.4861 26.5908 50.9998 31.6746 50.9998C45.4569 50.9998 56.6666 39.7853 56.6666 25.9998C56.6666 15.0095 49.5392 5.6611 39.6674 2.31836Z" fill="#549B45"/>
<path d="M40.269 29.6146C40.4368 29.6727 40.7787 29.8243 41.211 30.0235L24.5045 13.3179C24.5626 13.4284 24.6215 13.555 24.6803 13.6985C25.2827 15.1525 26.7521 18.7396 26.9287 19.1066C27.1045 19.4743 27.2819 19.9735 27.0311 20.4582C26.7956 20.9582 26.5908 21.1808 26.2239 21.6058C25.8553 22.0308 25.5021 22.3558 25.136 22.8106C24.7981 23.2074 24.415 23.634 24.8424 24.3687C25.269 25.0904 26.7376 27.4848 28.8973 29.409C31.6884 31.8929 33.9513 32.6872 34.7602 33.0251C35.3618 33.2759 36.0827 33.2154 36.5239 32.7461C37.0819 32.1429 37.7731 31.1445 38.4779 30.1598C38.9763 29.4525 39.6094 29.3654 40.269 29.6146Z" fill="#549B45"/>
<path d="M17.1441 19.437L16.9796 19.6023L17.1594 19.7814C17.1529 19.6669 17.1441 19.5523 17.1441 19.437Z" fill="#5CAA4F"/>
</g>
<defs>
<filter id="filter0_d" x="0.666626" y="0" width="62" height="62" filterUnits="userSpaceOnUse" color-interpolation-filters="sRGB">
<feFlood flood-opacity="0" result="BackgroundImageFix"/>
<feColorMatrix in="SourceAlpha" type="matrix" values="0 0 0 0 0 0 0 0 0 0 0 0 0 0 0 0 0 0 127 0"/>
<feOffset dy="5"/>
<feGaussianBlur stdDeviation="3"/>
<feColorMatrix type="matrix" values="0 0 0 0 0 0 0 0 0 0 0 0 0 0 0 0 0 0 0.21 0"/>
<feBlend mode="normal" in2="BackgroundImageFix" result="effect1_dropShadow"/>
<feBlend mode="normal" in="SourceGraphic" in2="effect1_dropShadow" result="shape"/>
</filter>
<clipPath id="clip0">
<rect width="50" height="50" fill="white" transform="translate(6.66663 1)"/>
</clipPath>
</defs>
</svg>
